<svg xmlns="http://www.w3.org/2000/svg" xmlns:xlink="http://www.w3.org/1999/xlink" width="500" zoomAndPan="magnify" viewBox="0 0 375 374.999991" height="500" preserveAspectRatio="xMidYMid meet" version="1.0"><defs><clipPath id="ec334a14c3"><path d="M 65.613281 30 L 343.078125 30 L 343.078125 374 L 65.613281 374 Z M 65.613281 30 " clip-rule="nonzero"/></clipPath><clipPath id="05c2224bd7"><path d="M 343.078125 39.722656 L 343.078125 316.054688 C 343.078125 321.457031 339.691406 326.277344 334.609375 328.105469 L 212.8125 371.953125 C 207.339844 373.921875 201.351562 373.921875 195.878906 371.953125 L 74.082031 328.105469 C 69 326.277344 65.613281 321.457031 65.613281 316.054688 L 65.613281 39.722656 C 65.613281 37.335938 66.5625 35.046875 68.25 33.359375 C 69.9375 31.671875 72.226562 30.722656 74.613281 30.722656 L 334.078125 30.722656 C 336.464844 30.722656 338.753906 31.671875 340.441406 33.359375 C 342.128906 35.046875 343.078125 37.335938 343.078125 39.722656 Z M 343.078125 39.722656 " clip-rule="nonzero"/></clipPath><clipPath id="a64a1ce88c"><path d="M 35 0 L 328 0 L 328 353.105469 L 35 353.105469 Z M 35 0 " clip-rule="nonzero"/></clipPath><clipPath id="0ffc902574"><path d="M 38 3 L 331 3 L 331 353.105469 L 38 353.105469 Z M 38 3 " clip-rule="nonzero"/></clipPath><clipPath id="943cb0c250"><path d="M 37 2 L 328 2 L 328 353.105469 L 37 353.105469 Z M 37 2 " clip-rule="nonzero"/></clipPath><clipPath id="3568624b79"><path d="M 240.40625 23.730469 L 326.863281 23.730469 L 326.863281 176.847656 L 240.40625 176.847656 Z M 240.40625 23.730469 " clip-rule="nonzero"/></clipPath></defs><g clip-path="url(#ec334a14c3)"><g clip-path="url(#05c2224bd7)"><path fill="#000000" d="M 65.613281 30.722656 L 343.078125 30.722656 L 343.078125 375.386719 L 65.613281 375.386719 Z M 65.613281 30.722656 " fill-opacity="1" fill-rule="nonzero"/></g></g><g clip-path="url(#a64a1ce88c)"><path fill="#000000" d="M 327.421875 224.757812 L 312.382812 319.070312 L 307.953125 332.019531 L 298.433594 353.089844 C 298.433594 353.089844 288.957031 348.757812 269.84375 308.058594 C 267.917969 308.917969 265.375 309.964844 262.335938 311.226562 L 261.980469 311.375 C 253.746094 314.761719 242.476562 319.410156 235.09375 323.683594 L 234.34375 324.117188 C 223.457031 330.453125 205.226562 341.046875 164.667969 341.046875 C 162.519531 341.046875 160.277344 341.015625 157.996094 340.949219 L 152.914062 340.816406 C 113.308594 339.738281 101.355469 339.414062 83.457031 339.414062 C 65.859375 339.414062 56.070312 330.46875 50.226562 325.125 C 49.71875 324.652344 49.253906 324.238281 48.820312 323.84375 L 48.664062 323.710938 C 47.921875 323.054688 46.964844 322.371094 45.953125 321.644531 C 40.410156 317.667969 32.042969 311.664062 37.476562 294.273438 C 39.992188 286.210938 39.457031 277.441406 38.832031 267.289062 C 38.050781 254.285156 37.152344 239.546875 41.921875 221.039062 C 47.082031 201.015625 58.136719 176.597656 67.886719 155.066406 C 74.242188 141.027344 80.234375 127.8125 83.519531 118.078125 C 84.980469 113.785156 86.417969 109.359375 87.761719 105.183594 L 87.792969 105.074219 C 94.605469 84.019531 101.046875 64.128906 112.671875 49.953125 C 125.632812 34.152344 137.074219 23.078125 144.867188 18.761719 C 147.480469 17.3125 149.265625 15.644531 150.996094 14.019531 C 153.726562 11.484375 156.535156 8.867188 161.722656 7.734375 C 163.832031 7.269531 165.65625 5.914062 167.417969 4.609375 C 169.847656 2.820312 172.597656 0.789062 176.316406 0.789062 C 178.800781 0.789062 181.398438 1.6875 184.242188 3.535156 C 184.832031 3.464844 185.664062 3.386719 186.648438 3.386719 C 190.382812 3.386719 195.808594 4.417969 200.417969 9.355469 L 202.597656 11.664062 C 212.839844 22.503906 222.101562 32.710938 222.96875 38.507812 C 223.632812 42.878906 222.90625 46.425781 221.933594 49.21875 C 225.101562 49.566406 227.648438 50.675781 229.546875 52.535156 C 233.730469 56.632812 233.476562 63.003906 233.359375 66.066406 L 233.34375 66.390625 C 233.136719 71.839844 228.390625 73.753906 222.890625 75.96875 L 221.980469 76.339844 C 219.257812 77.441406 215.523438 78 210.878906 78 C 209 78 207.367188 77.898438 206.316406 77.820312 C 194.757812 86.546875 171.199219 89.164062 168.515625 89.4375 C 162.183594 90.105469 152.875 92.878906 150.246094 93.691406 C 149.035156 95.96875 147.742188 99.417969 146.398438 103.953125 L 146.3125 104.253906 L 146.3125 104.261719 L 146.25 104.480469 C 145.878906 105.75 145.507812 107.082031 145.152344 108.453125 L 144.90625 109.359375 C 144.605469 110.546875 144.300781 111.785156 144.007812 113.050781 C 143.921875 113.421875 143.832031 113.785156 143.746094 114.164062 C 143.476562 115.320312 143.210938 116.507812 142.957031 117.714844 C 142.855469 118.125 142.773438 118.519531 142.695312 118.910156 C 142.453125 120.078125 142.214844 121.226562 141.976562 122.402344 L 141.71875 123.683594 C 141.503906 124.804688 141.289062 125.945312 141.078125 127.09375 C 140.992188 127.550781 140.910156 127.96875 140.839844 128.394531 C 140.628906 129.570312 140.429688 130.710938 140.234375 131.851562 C 140.152344 132.292969 140.082031 132.71875 140.011719 133.144531 C 139.8125 134.308594 139.632812 135.484375 139.453125 136.640625 L 139.191406 138.296875 C 139.03125 139.367188 138.875 140.4375 138.726562 141.5 C 138.660156 141.910156 138.605469 142.273438 138.566406 142.636719 C 138.378906 143.945312 138.203125 145.226562 138.039062 146.488281 L 137.917969 147.441406 C 137.746094 148.867188 137.578125 150.277344 137.421875 151.664062 L 137.351562 152.253906 C 136.160156 163.105469 135.84375 171.605469 136.46875 176.152344 C 138.078125 187.824219 141.203125 211.664062 142.710938 223.179688 C 157.222656 209.222656 173.496094 202.433594 192.382812 202.433594 C 197.796875 202.433594 202.386719 202.96875 206.070312 203.402344 C 206.863281 203.496094 207.675781 203.546875 208.488281 203.546875 C 218.726562 203.546875 229.570312 196.242188 242.113281 187.785156 C 246.695312 184.703125 251.429688 181.515625 256.46875 178.457031 C 267.277344 171.929688 280.886719 168.613281 296.933594 168.613281 C 302.464844 168.613281 307.667969 169.023438 312.1875 169.582031 C 312.203125 169.582031 312.21875 169.589844 312.234375 169.589844 C 312.46875 169.613281 312.707031 169.644531 312.945312 169.675781 L 312.976562 169.675781 C 314.007812 169.808594 315.003906 169.953125 315.960938 170.101562 L 315.96875 170.101562 C 323.222656 171.464844 327.34375 174.796875 327.34375 174.796875 L 324.738281 178.121094 C 324.738281 178.121094 327.210938 207.089844 327.210938 207.398438 C 327.210938 207.703125 327.421875 224.757812 327.421875 224.757812 Z M 327.421875 224.757812 " fill-opacity="1" fill-rule="nonzero"/></g><g clip-path="url(#0ffc902574)"><path fill="#ffffff" d="M 298.433594 353.089844 C 284.285156 338.132812 273.492188 311.003906 271.445312 305.648438 L 271.136719 304.851562 L 270.363281 305.222656 C 268.40625 306.152344 265.328125 307.429688 261.425781 309.042969 L 261.0625 309.191406 C 252.773438 312.609375 241.417969 317.28125 233.902344 321.644531 L 233.152344 322.078125 C 222.464844 328.292969 204.578125 338.683594 164.660156 338.683594 C 162.539062 338.683594 160.3125 338.652344 158.0625 338.585938 L 152.96875 338.453125 C 113.339844 337.375 101.386719 337.050781 83.449219 337.050781 C 66.765625 337.050781 57.410156 328.488281 51.820312 323.378906 C 51.324219 322.914062 50.839844 322.488281 50.398438 322.085938 L 50.242188 321.945312 C 49.390625 321.195312 48.386719 320.480469 47.335938 319.722656 C 41.746094 315.714844 34.804688 310.738281 39.734375 294.976562 C 42.378906 286.492188 41.832031 277.527344 41.195312 267.140625 C 40.421875 254.308594 39.535156 239.769531 44.210938 221.621094 C 49.324219 201.796875 60.332031 177.480469 70.042969 156.027344 C 76.421875 141.941406 82.4375 128.671875 85.761719 118.824219 C 87.222656 114.523438 88.660156 110.082031 90.003906 105.898438 L 90.035156 105.796875 C 96.777344 84.957031 103.148438 65.28125 114.492188 51.449219 C 127.277344 35.878906 138.464844 25 146.003906 20.824219 C 148.878906 19.234375 150.859375 17.375 152.605469 15.738281 C 155.210938 13.3125 157.664062 11.035156 162.222656 10.035156 C 164.828125 9.460938 166.941406 7.890625 168.8125 6.507812 C 171.160156 4.78125 173.371094 3.152344 176.300781 3.152344 C 178.445312 3.152344 180.769531 4.03125 183.414062 5.84375 L 183.679688 6.027344 L 183.996094 5.96875 C 184.445312 5.890625 185.378906 5.757812 186.625 5.757812 C 189.894531 5.757812 194.632812 6.664062 198.667969 10.972656 L 200.851562 13.289062 C 210.003906 22.976562 219.832031 33.742188 220.597656 38.855469 C 221.191406 42.769531 220.695312 46.21875 218.925781 50.371094 L 218.460938 51.464844 L 219.652344 51.464844 C 223.246094 51.464844 225.992188 52.394531 227.863281 54.222656 C 231.296875 57.578125 231.078125 63.25 230.964844 65.972656 L 230.949219 66.273438 C 230.800781 70.226562 227.292969 71.636719 221.980469 73.777344 L 221.074219 74.140625 C 218.664062 75.117188 215.136719 75.628906 210.863281 75.628906 C 208.644531 75.628906 206.789062 75.488281 205.890625 75.410156 L 205.574219 75.378906 L 205.328125 75.574219 C 194.308594 84.339844 169.320312 86.972656 168.261719 87.082031 C 161.164062 87.832031 150.898438 90.996094 148.917969 91.621094 L 148.625 91.714844 L 148.476562 91.980469 C 147.09375 94.398438 145.625 98.195312 144.117188 103.277344 L 143.945312 103.890625 C 143.574219 105.160156 143.203125 106.492188 142.847656 107.859375 L 142.609375 108.757812 C 142.300781 109.988281 141.984375 111.230469 141.6875 112.523438 C 141.597656 112.886719 141.511719 113.257812 141.425781 113.632812 C 141.15625 114.800781 140.886719 116.003906 140.628906 117.21875 C 140.53125 117.628906 140.445312 118.046875 140.367188 118.460938 C 140.121094 119.589844 139.886719 120.753906 139.648438 121.929688 L 139.386719 123.21875 C 139.167969 124.363281 138.953125 125.519531 138.742188 126.6875 C 138.652344 127.117188 138.574219 127.566406 138.503906 128.015625 C 138.289062 129.144531 138.09375 130.292969 137.894531 131.449219 C 137.816406 131.890625 137.746094 132.324219 137.675781 132.765625 C 137.476562 133.933594 137.289062 135.105469 137.105469 136.28125 L 136.855469 137.941406 C 136.6875 139.027344 136.53125 140.097656 136.378906 141.179688 C 136.316406 141.558594 136.261719 141.949219 136.214844 142.34375 C 136.03125 143.621094 135.859375 144.902344 135.691406 146.171875 L 135.574219 147.140625 C 135.394531 148.574219 135.226562 150 135.070312 151.394531 L 135.007812 151.953125 C 133.78125 163.035156 133.472656 171.730469 134.121094 176.464844 C 135.898438 189.359375 139.53125 217.0625 140.777344 226.648438 L 140.992188 228.261719 L 142.128906 227.085938 C 156.742188 212.074219 173.179688 204.78125 192.382812 204.78125 C 197.65625 204.78125 202.171875 205.316406 205.796875 205.742188 C 206.679688 205.84375 207.582031 205.898438 208.488281 205.898438 C 219.453125 205.898438 230.570312 198.410156 243.441406 189.738281 C 247.996094 186.664062 252.710938 183.492188 257.699219 180.472656 C 268.128906 174.164062 281.332031 170.96875 296.933594 170.96875 C 312.3125 170.96875 325.046875 174.171875 327.34375 174.789062 C 334.851562 232.285156 328.804688 309.351562 298.433594 353.089844 Z M 298.433594 353.089844 " fill-opacity="1" fill-rule="nonzero"/></g><g clip-path="url(#943cb0c250)"><path fill="#000000" d="M 327.34375 174.796875 C 326.707031 174.332031 325.503906 173.628906 324.90625 173.234375 C 325.851562 173.851562 285.074219 163.011719 257.296875 179.804688 C 252.316406 182.820312 247.578125 186.011719 243.007812 189.089844 C 229.285156 198.339844 217.425781 206.324219 205.898438 204.96875 C 192.917969 203.441406 167.015625 200.410156 141.566406 226.550781 C 140.628906 219.335938 136.789062 190.003906 134.910156 176.363281 C 134.230469 171.433594 134.652344 162.445312 135.796875 152.054688 C 135.820312 151.867188 135.835938 151.679688 135.859375 151.488281 C 136.015625 150.09375 136.183594 148.675781 136.363281 147.242188 C 136.402344 146.929688 136.441406 146.605469 136.484375 146.28125 C 136.648438 145.015625 136.820312 143.730469 137.003906 142.445312 C 137.050781 142.0625 137.105469 141.675781 137.167969 141.289062 C 137.335938 140.082031 137.515625 138.878906 137.699219 137.664062 C 137.761719 137.242188 137.832031 136.824219 137.894531 136.398438 C 138.078125 135.230469 138.265625 134.058594 138.464844 132.894531 C 138.535156 132.460938 138.605469 132.027344 138.683594 131.585938 C 138.882812 130.433594 139.082031 129.285156 139.292969 128.144531 C 139.363281 127.703125 139.441406 127.261719 139.53125 126.828125 C 139.742188 125.667969 139.957031 124.511719 140.175781 123.378906 C 140.265625 122.945312 140.351562 122.511719 140.4375 122.085938 C 140.675781 120.914062 140.910156 119.753906 141.15625 118.613281 C 141.234375 118.203125 141.324219 117.792969 141.417969 117.382812 C 141.679688 116.171875 141.945312 114.972656 142.214844 113.808594 C 142.300781 113.429688 142.386719 113.058594 142.476562 112.695312 C 142.773438 111.414062 143.082031 110.167969 143.390625 108.957031 C 143.46875 108.65625 143.550781 108.355469 143.628906 108.058594 C 143.992188 106.664062 144.363281 105.324219 144.742188 104.039062 L 144.742188 104.03125 C 144.789062 103.851562 144.84375 103.679688 144.890625 103.503906 C 146.304688 98.746094 147.75 94.871094 149.179688 92.375 C 151.027344 91.792969 161.351562 88.609375 168.363281 87.871094 C 171.070312 87.59375 194.933594 84.878906 205.84375 76.199219 C 207.644531 76.363281 216.089844 77.023438 221.398438 74.875 L 222.28125 74.519531 C 227.699219 72.339844 231.605469 70.769531 231.773438 66.3125 L 231.789062 66.003906 C 231.898438 63.167969 232.125 57.261719 228.449219 53.664062 C 226.410156 51.671875 223.457031 50.667969 219.683594 50.675781 C 221.246094 47 222.109375 43.328125 221.414062 38.738281 C 220.617188 33.394531 211.117188 22.96875 201.460938 12.746094 C 200.664062 11.902344 199.929688 11.121094 199.273438 10.429688 C 193.234375 3.96875 185.632812 4.875 183.886719 5.191406 C 176.308594 0.0078125 172.265625 2.992188 168.355469 5.875 C 166.453125 7.285156 164.488281 8.734375 162.0625 9.269531 C 157.285156 10.316406 154.761719 12.671875 152.074219 15.171875 C 150.269531 16.863281 148.390625 18.613281 145.632812 20.140625 C 137.992188 24.371094 126.722656 35.316406 113.894531 50.953125 C 102.4375 64.917969 96.042969 84.710938 89.261719 105.664062 C 87.894531 109.910156 86.472656 114.304688 85.019531 118.582031 C 81.710938 128.371094 75.703125 141.636719 69.339844 155.679688 C 59.613281 177.167969 48.582031 201.527344 43.453125 221.433594 C 38.746094 239.699219 39.628906 254.300781 40.410156 267.195312 C 41.042969 277.511719 41.582031 286.429688 38.984375 294.746094 C 33.890625 311.050781 41.390625 316.429688 46.871094 320.363281 C 47.914062 321.109375 48.898438 321.820312 49.71875 322.535156 C 50.203125 322.96875 50.730469 323.441406 51.292969 323.960938 C 56.96875 329.152344 66.472656 337.839844 83.457031 337.839844 C 101.121094 337.839844 112.101562 338.132812 152.953125 339.242188 L 158.042969 339.375 C 160.320312 339.4375 162.519531 339.46875 164.667969 339.46875 C 204.785156 339.46875 222.660156 329.089844 233.554688 322.757812 L 234.304688 322.324219 C 241.71875 318.023438 253.074219 313.335938 261.371094 309.917969 C 265.390625 308.253906 268.675781 306.902344 270.710938 305.933594 C 272.683594 311.097656 283.855469 338.171875 298.433594 353.089844 C 298.25 352.835938 294.738281 348.976562 293.054688 345.675781 C 291.570312 343 287.09375 334.964844 288.285156 323.796875 C 288.285156 323.796875 292.457031 328.417969 306.207031 332.121094 C 306.207031 332.121094 286.132812 293.289062 298.488281 275.71875 C 298.488281 275.71875 274.390625 261.335938 268.414062 231.539062 C 268.414062 231.539062 267.386719 262.460938 280.152344 274.742188 C 280.152344 274.742188 241.046875 275.191406 228.660156 240.375 C 218.695312 212.367188 232.5625 198.457031 238.371094 194.085938 C 239.144531 193.574219 239.933594 193.046875 240.726562 192.519531 C 277.5 169.117188 323.199219 215.304688 323.199219 215.304688 C 321.652344 203.59375 314.546875 201.125 314.546875 201.125 C 314.546875 201.125 295.699219 194.652344 291.988281 183.871094 C 288.285156 173.078125 327.34375 174.796875 327.34375 174.796875 Z M 230.183594 66.257812 C 230.066406 69.535156 227.191406 70.839844 221.6875 73.054688 L 220.796875 73.417969 C 218.339844 74.410156 215.066406 74.75 212.183594 74.820312 C 208.78125 73.699219 207.675781 69.945312 207.367188 68.40625 C 207.792969 68.195312 208.203125 67.949219 208.597656 67.683594 C 210.074219 71.699219 213.976562 72.527344 213.976562 72.527344 C 211.347656 70.589844 210.691406 65.933594 210.691406 65.933594 C 212.964844 63.640625 214.679688 60.570312 216.25 57.5625 C 216.257812 57.5625 223.632812 55.339844 225.636719 61.507812 C 227.640625 67.675781 222.242188 71.449219 222.242188 71.449219 C 222.242188 71.449219 228.574219 69.722656 227.878906 61.183594 C 227.878906 61.183594 230.027344 61.664062 230.230469 64.902344 C 230.222656 65.273438 230.207031 65.628906 230.191406 65.941406 Z M 125.65625 174.253906 C 84.167969 188.234375 78.800781 233.734375 78.671875 234.546875 C 78.957031 233.765625 86.488281 213.5625 106.101562 199.742188 C 106.195312 199.675781 106.289062 199.613281 106.386719 199.542969 C 107.972656 198.441406 109.644531 197.378906 111.390625 196.371094 C 110.917969 196.761719 103.226562 203.300781 98.59375 218.078125 C 98.59375 218.078125 106.472656 204.214844 125.160156 201.433594 C 125.160156 201.433594 140.011719 227.113281 124.449219 247.101562 C 124.222656 247.386719 123.992188 247.660156 123.769531 247.945312 C 123.730469 248 123.691406 248.046875 123.652344 248.09375 C 123.589844 248.171875 123.527344 248.246094 123.464844 248.324219 C 111.289062 263.414062 105.492188 270.164062 99.082031 274.796875 C 82.125 273.875 84.074219 285.429688 84.074219 285.429688 L 92.148438 280.742188 C 104.300781 274.679688 108.839844 269.039062 130.65625 241.910156 C 132.417969 239.722656 134.289062 237.398438 136.285156 234.917969 C 149.121094 218.984375 162.378906 211.429688 174.238281 208.058594 C 174.246094 208.058594 204.5625 200.527344 212.902344 241.816406 C 221.246094 283.113281 125.46875 301.300781 125.46875 301.300781 C 125.46875 301.300781 168.101562 305.617188 201.160156 285.429688 C 201.160156 285.429688 194.671875 298.222656 174.59375 307.46875 C 174.59375 307.46875 203.941406 303.765625 223.71875 287.121094 C 243.488281 270.480469 279.175781 285.570312 279.175781 285.570312 C 278.25 290.011719 274.933594 302.007812 270.78125 304.144531 C 268.925781 305.089844 265.144531 306.648438 260.761719 308.460938 C 257.351562 309.871094 253.429688 311.492188 249.472656 313.210938 L 249.480469 313.210938 C 249.480469 313.210938 228.867188 319.691406 209.300781 319.078125 C 189.738281 318.464844 146.691406 321.542969 117.644531 327.710938 C 118.589844 327.511719 165.710938 322.09375 182.671875 329.152344 C 199.15625 336.011719 168.472656 337.800781 166.746094 337.894531 C 163.964844 337.917969 161.09375 337.894531 158.085938 337.816406 L 152.992188 337.683594 C 112.125 336.578125 101.144531 336.28125 83.457031 336.28125 C 67.089844 336.28125 57.867188 327.851562 52.359375 322.8125 C 51.789062 322.292969 51.261719 321.804688 50.761719 321.371094 C 49.886719 320.597656 48.867188 319.875 47.792969 319.101562 C 45.164062 317.210938 42.226562 315.101562 40.46875 311.65625 C 36.203125 302.585938 46.382812 295.25 46.382812 295.25 C 58.328125 302.648438 63.886719 318.0625 63.886719 318.0625 C 63.886719 318.0625 63.679688 308.816406 53.382812 286.832031 C 43.183594 265.042969 44.242188 225.550781 44.265625 224.828125 C 44.492188 223.84375 44.730469 222.84375 44.992188 221.835938 C 50.082031 202.0625 61.082031 177.773438 70.792969 156.347656 C 77.164062 142.265625 83.1875 128.960938 86.527344 119.101562 C 87.980469 114.808594 89.402344 110.414062 90.777344 106.167969 C 97.503906 85.359375 103.859375 65.699219 115.125 51.96875 C 127.828125 36.476562 138.9375 25.667969 146.40625 21.527344 C 149.328125 19.910156 151.277344 18.09375 153.164062 16.335938 C 155.375 14.273438 157.34375 12.445312 160.523438 11.351562 C 165.570312 10.40625 174.6875 18.957031 172.144531 12.824219 C 169.605469 6.679688 172.910156 4.820312 173.457031 4.558594 C 174.949219 3.945312 176.582031 3.734375 178.558594 4.292969 C 182.640625 5.695312 185.953125 11.304688 186.65625 12.5625 L 186.800781 12.824219 C 186.800781 12.824219 188.519531 5.820312 194.191406 8.445312 C 195.515625 9.175781 196.859375 10.160156 198.121094 11.515625 C 198.777344 12.214844 199.511719 12.996094 200.308594 13.839844 C 205.289062 19.109375 213.515625 27.828125 217.535156 34.035156 C 211.757812 36.941406 208.992188 43.722656 208.992188 43.722656 C 212.421875 40.507812 215.640625 38.925781 215.640625 38.925781 C 211.679688 42.109375 209.617188 47.320312 209.617188 47.320312 C 216.265625 40.507812 220.0625 41.1875 220.070312 41.1875 C 220.269531 46.085938 218.507812 49.890625 216.074219 54.535156 L 215.4375 55.75 C 212.347656 61.710938 209.152344 67.839844 202.589844 68.007812 C 203.5625 66.746094 204.460938 65.46875 205.3125 64.25 L 205.835938 63.515625 C 210.9375 56.292969 209.609375 52.332031 206.839844 45.953125 C 205.558594 43.003906 200.585938 34.324219 196.605469 27.519531 C 195.753906 23.921875 194.175781 18.503906 192.199219 17.566406 C 187.660156 15.390625 189.570312 18.941406 189.570312 18.941406 L 191.207031 21.449219 C 194.527344 27.0625 203.640625 42.566406 205.394531 46.582031 C 205.699219 47.28125 205.976562 47.945312 206.238281 48.582031 C 200.523438 48.03125 197.292969 52.425781 197.292969 52.425781 C 200.316406 50.472656 204.257812 50.9375 204.257812 50.9375 C 196.480469 52.480469 195.089844 58.902344 195.089844 58.902344 C 199.351562 53.128906 205.519531 53.324219 207.660156 53.59375 C 207.925781 56.292969 207.128906 58.933594 204.53125 62.601562 L 204.019531 63.335938 C 199.613281 69.605469 194.164062 77.332031 183.253906 76.324219 C 185.488281 74.046875 187.296875 71.417969 188.742188 69.3125 C 189.46875 68.257812 190.09375 67.335938 190.660156 66.628906 C 193.730469 62.761719 191.835938 57.53125 189.832031 51.984375 L 189.546875 51.199219 C 188.464844 48.195312 185.195312 40.824219 182.355469 34.539062 C 181.863281 30.90625 180.757812 24.859375 178.785156 23.683594 C 174.460938 21.117188 176.046875 24.828125 176.046875 24.828125 L 177.089844 26.78125 C 179.550781 32.144531 186.453125 47.226562 188.070312 51.734375 L 188.355469 52.519531 C 188.789062 53.726562 189.214844 54.914062 189.585938 56.066406 C 190.335938 58.695312 189.414062 58.554688 188.859375 58.277344 C 188.742188 58.199219 188.617188 58.128906 188.496094 58.058594 C 184.527344 55.875 179.226562 58.585938 179.226562 58.585938 C 184.621094 57.734375 187.429688 60.128906 187.429688 60.128906 C 180.167969 58.585938 175.382812 62.601562 175.382812 62.601562 C 175.382812 62.601562 179.789062 61.4375 184.34375 61.894531 C 188.898438 62.351562 188.300781 67.195312 188.300781 67.195312 C 188.03125 67.582031 187.753906 67.980469 187.453125 68.414062 C 184.527344 72.683594 180.515625 78.519531 174.757812 79.695312 C 169.257812 80.8125 166.175781 78.417969 165.070312 77.292969 C 166.238281 76.070312 167.21875 74.441406 168.300781 72.644531 C 169.050781 71.394531 169.832031 70.101562 170.78125 68.738281 C 175.027344 62.609375 172.097656 56.570312 171.773438 55.9375 L 167.683594 45.605469 C 167.683594 45.605469 166.652344 33.6875 163.792969 31.996094 C 159.464844 29.425781 161.054688 33.136719 161.054688 33.136719 L 169.214844 53.765625 C 164.636719 53.308594 160.863281 56.113281 160.863281 56.113281 C 164.953125 55.578125 167.503906 57.035156 167.503906 57.035156 C 161.09375 57.113281 158.777344 60.539062 158.777344 60.539062 C 158.777344 60.539062 162.949219 59.191406 166.5 59.191406 C 170.039062 59.191406 171.46875 61.863281 171.476562 61.886719 C 171.425781 63.671875 170.929688 65.753906 169.476562 67.839844 C 168.507812 69.25 167.675781 70.621094 166.949219 71.832031 C 164.503906 75.898438 163.027344 78.355469 159.125 77.835938 C 156.550781 77.488281 154.308594 76.199219 152.808594 74.195312 C 151.121094 71.953125 150.488281 69.039062 150.984375 65.785156 L 151.042969 65.40625 C 151.042969 65.40625 151.332031 62.949219 152.984375 60.175781 C 152.984375 60.175781 148.863281 61.199219 149.273438 54.214844 C 149.273438 54.214844 143.777344 56.742188 139.214844 49.722656 C 139.214844 49.722656 139.230469 50.117188 139.347656 50.726562 C 139.980469 54.535156 142.121094 56.625 143.9375 57.695312 C 140.296875 57.964844 132.851562 58.003906 128.042969 54.503906 C 128.042969 54.503906 131.683594 60.6875 146.816406 61.863281 C 147.605469 63.746094 148.769531 65.226562 149.320312 65.871094 C 148.886719 67.210938 147.347656 72.085938 144.511719 76.449219 C 144.511719 76.464844 144.503906 76.472656 144.496094 76.480469 C 142.246094 79.9375 139.191406 83.082031 135.226562 83.859375 C 135.242188 83.859375 135.265625 83.851562 135.28125 83.851562 C 135.265625 83.851562 135.25 83.859375 135.226562 83.871094 C 134.957031 83.917969 134.691406 83.972656 134.414062 83.996094 C 134.230469 84.019531 134.042969 84.035156 133.851562 84.042969 C 133.851562 84.042969 139.703125 84.640625 146.808594 80.53125 C 146.808594 80.53125 144.457031 85.050781 140.328125 86.800781 C 140.328125 86.800781 148.5625 86.183594 152.375 79.402344 C 152.375 79.402344 156.796875 80.425781 158.035156 85.460938 C 158.035156 85.460938 159.09375 82.019531 157.253906 79.066406 C 157.253906 79.066406 161.101562 80.710938 163.035156 85.027344 C 163.035156 85.027344 163.453125 82.492188 162.09375 79.222656 C 162.75 79.023438 163.351562 78.734375 163.886719 78.347656 C 164.859375 79.347656 167.070312 81.144531 170.691406 81.507812 C 170.691406 81.507812 170.691406 81.507812 170.683594 81.507812 C 170.683594 81.507812 170.691406 81.507812 170.714844 81.507812 C 171.128906 81.546875 171.546875 81.570312 171.996094 81.570312 C 172.476562 81.570312 172.992188 81.539062 173.511719 81.484375 C 177.308594 81.292969 184.535156 80.378906 192.730469 76.488281 C 192.730469 76.488281 192.730469 76.488281 192.722656 76.488281 C 196.273438 74.9375 199.03125 72.355469 201.367188 69.542969 C 205.566406 70.242188 205.363281 74.566406 205.363281 74.566406 L 209 74.8125 C 207.058594 74.75 205.734375 74.605469 205.691406 74.605469 L 205.363281 74.566406 L 205.109375 74.78125 C 196.636719 81.726562 177.925781 85.300781 168.214844 86.320312 C 166.28125 86.523438 164.140625 86.894531 161.992188 87.34375 C 161.738281 87.398438 161.496094 87.453125 161.242188 87.5 C 150.898438 89.691406 146.082031 88.640625 146.082031 88.640625 C 146.082031 88.640625 133.71875 91.210938 125.894531 86.074219 C 125.894531 86.074219 131.4375 92.453125 140.296875 90.777344 L 140.289062 90.777344 C 131.738281 96.960938 120.851562 87.816406 120.851562 87.816406 C 129.433594 98.332031 137.839844 94.902344 140.925781 95.929688 C 142.113281 96.320312 142.269531 99.316406 142.007812 102.859375 C 142.007812 102.859375 142 102.859375 142 102.859375 C 139.160156 122.417969 125.65625 174.253906 125.65625 174.253906 Z M 130.207031 83.980469 C 130.207031 83.980469 115.789062 83.082031 108.582031 69.9375 C 108.582031 69.9375 111.667969 85.492188 130.207031 83.980469 Z M 169.730469 62.335938 C 169.730469 62.335938 168.113281 60.476562 162.464844 61.484375 C 162.464844 61.484375 166.019531 63.257812 169.730469 62.335938 Z M 186.800781 55.65625 C 180.386719 52.191406 177.300781 57.804688 177.300781 57.804688 C 181.574219 54.78125 186.800781 55.65625 186.800781 55.65625 Z M 201.761719 47.410156 C 195.019531 46.410156 195.089844 52.882812 195.089844 52.882812 C 196.96875 48.636719 201.761719 47.410156 201.761719 47.410156 Z M 217.332031 43.839844 C 217.332031 43.839844 212.648438 46.472656 210.53125 50.09375 C 210.53125 50.09375 215.476562 48.15625 217.332031 43.839844 Z M 82.21875 201.125 C 88.398438 174.007812 119.398438 103.121094 119.398438 103.121094 C 90.769531 127.160156 82.21875 201.125 82.21875 201.125 Z M 105.699219 108.664062 C 88.707031 118.832031 91.550781 139.484375 91.550781 139.484375 C 95.625 121.296875 105.699219 108.664062 105.699219 108.664062 Z M 63.886719 296.371094 C 63.886719 296.371094 59.597656 270.171875 50.976562 241.816406 C 50.984375 241.808594 49.570312 270.480469 63.886719 296.371094 Z M 139.207031 290.367188 L 142.222656 289.589844 L 145.207031 288.683594 L 148.160156 287.691406 L 151.066406 286.570312 C 152.019531 286.167969 152.984375 285.785156 153.9375 285.367188 L 156.757812 284.050781 C 157.691406 283.59375 158.605469 283.113281 159.527344 282.632812 C 163.183594 280.671875 166.699219 278.449219 169.925781 275.859375 C 166.175781 277.617188 162.472656 279.355469 158.722656 280.980469 C 157.777344 281.363281 156.835938 281.757812 155.90625 282.167969 L 153.070312 283.308594 C 152.117188 283.664062 151.175781 284.050781 150.226562 284.421875 L 147.363281 285.46875 L 144.480469 286.484375 L 141.574219 287.4375 L 138.660156 288.359375 C 137.683594 288.636719 136.703125 288.925781 135.734375 289.234375 C 131.808594 290.367188 127.84375 291.382812 123.835938 292.414062 C 127.980469 292.359375 132.109375 291.839844 136.175781 291.023438 C 137.183594 290.824219 138.203125 290.605469 139.207031 290.367188 Z M 229.925781 219.832031 C 229.875 220.753906 229.828125 221.675781 229.8125 222.597656 L 229.890625 225.371094 C 229.972656 226.292969 230.082031 227.214844 230.183594 228.136719 L 230.640625 230.875 L 231.3125 233.570312 L 232.152344 236.214844 L 233.183594 238.792969 C 233.570312 239.636719 233.980469 240.460938 234.394531 241.289062 C 236.113281 244.550781 238.316406 247.566406 240.992188 250.054688 C 239.082031 246.953125 237.417969 243.785156 236.066406 240.507812 C 235.757812 239.675781 235.441406 238.847656 235.109375 238.027344 L 234.28125 235.515625 C 234.054688 234.664062 233.800781 233.824219 233.554688 232.972656 L 232.972656 230.394531 L 232.480469 227.796875 C 232.363281 226.921875 232.269531 226.046875 232.132812 225.175781 L 231.898438 222.535156 C 231.875 221.652344 231.835938 220.769531 231.78125 219.882812 C 231.707031 216.335938 231.976562 212.777344 232.496094 209.167969 C 231.019531 212.523438 230.207031 216.164062 229.925781 219.832031 Z M 239.234375 210.601562 C 239.492188 208.011719 239.847656 205.425781 240.171875 202.765625 C 238.910156 205.136719 238.03125 207.6875 237.417969 210.296875 C 236.785156 212.902344 236.445312 215.589844 236.359375 218.273438 C 236.273438 220.960938 236.445312 223.660156 236.910156 226.308594 C 237.363281 228.953125 238.078125 231.554688 239.183594 233.996094 C 239.035156 231.316406 238.847656 228.710938 238.742188 226.109375 C 238.664062 223.511719 238.640625 220.929688 238.71875 218.34375 C 238.796875 215.769531 238.980469 213.195312 239.234375 210.601562 Z M 165.261719 71.707031 C 165.820312 70.871094 166.28125 69.984375 166.636719 69.046875 C 166.972656 68.101562 167.226562 67.125 167.25 66.101562 C 166.609375 66.894531 166.074219 67.699219 165.539062 68.488281 L 163.957031 70.832031 L 162.378906 73.179688 C 161.859375 73.976562 161.3125 74.773438 160.824219 75.667969 C 161.761719 75.261719 162.578125 74.660156 163.328125 73.984375 C 164.054688 73.308594 164.699219 72.542969 165.261719 71.707031 Z M 176.417969 76.636719 C 177.671875 76.117188 178.863281 75.410156 179.914062 74.535156 C 180.972656 73.667969 181.898438 72.636719 182.648438 71.503906 C 183.398438 70.367188 183.980469 69.117188 184.25 67.792969 C 183.390625 68.832031 182.558594 69.816406 181.683594 70.738281 C 180.808594 71.660156 179.875 72.519531 178.914062 73.316406 C 177.941406 74.109375 176.921875 74.859375 175.847656 75.542969 C 174.773438 76.230469 173.644531 76.851562 172.460938 77.503906 C 173.820312 77.496094 175.160156 77.167969 176.417969 76.636719 Z M 193.691406 71.425781 C 195.082031 70.472656 196.335938 69.34375 197.496094 68.117188 C 198.632812 66.871094 199.667969 65.53125 200.515625 64.082031 C 201.367188 62.640625 202.070312 61.105469 202.503906 59.484375 C 201.484375 60.816406 200.515625 62.121094 199.503906 63.390625 C 198.484375 64.652344 197.449219 65.878906 196.335938 67.046875 C 195.253906 68.234375 194.09375 69.351562 192.917969 70.464844 C 191.726562 71.566406 190.496094 72.628906 189.238281 73.738281 C 190.828125 73.195312 192.3125 72.386719 193.691406 71.425781 Z M 98.53125 183.460938 C 98.53125 183.460938 109.195312 172.363281 120.9375 168.667969 L 130.207031 134.972656 L 117.234375 159.214844 L 118.261719 144.015625 C 118.261719 144.007812 106.820312 159.625 98.53125 183.460938 Z M 98.53125 183.460938 " fill-opacity="1" fill-rule="nonzero"/></g><g clip-path="url(#3568624b79)"><path fill="#ffffff" d="M 240.5 100.222656 C 240.5 100.222656 269.191406 100.222656 269.191406 100.222656 C 269.191406 100.222656 240.5 176.730469 240.5 176.730469 C 240.5 176.730469 326.574219 71.53125 326.574219 71.53125 C 326.574219 71.53125 288.320312 71.40625 288.320312 71.40625 C 288.320312 71.40625 307.445312 23.714844 307.445312 23.714844 C 307.445312 23.714844 259.628906 23.714844 259.628906 23.714844 C 259.628906 23.714844 240.5 100.222656 240.5 100.222656 Z M 240.5 100.222656 " fill-opacity="1" fill-rule="nonzero"/></g></svg>