<svg xmlns="http://www.w3.org/2000/svg" xmlns:xlink="http://www.w3.org/1999/xlink" width="100" zoomAndPan="magnify" viewBox="0 0 375 374.999991" height="100" preserveAspectRatio="xMidYMid meet" version="1.0"><defs><g/><clipPath id="427a8dbf81"><path d="M 82.089844 22.121094 L 281.875 22.121094 L 281.875 268.734375 L 82.089844 268.734375 Z M 82.089844 22.121094 " clip-rule="nonzero"/></clipPath><clipPath id="ad17c445cf"><path d="M 281.875 31.121094 L 281.875 225.054688 C 281.875 230.453125 278.488281 235.273438 273.40625 237.101562 L 190.449219 266.96875 C 184.976562 268.9375 178.988281 268.9375 173.511719 266.96875 L 90.554688 237.101562 C 85.476562 235.273438 82.089844 230.453125 82.089844 225.054688 L 82.089844 31.121094 C 82.089844 28.734375 83.035156 26.445312 84.722656 24.757812 C 86.414062 23.070312 88.703125 22.121094 91.089844 22.121094 L 272.875 22.121094 C 275.261719 22.121094 277.550781 23.070312 279.238281 24.757812 C 280.925781 26.445312 281.875 28.734375 281.875 31.121094 Z M 281.875 31.121094 " clip-rule="nonzero"/></clipPath><clipPath id="1241306941"><path d="M 60 0 L 271 0 L 271 254.808594 L 60 254.808594 Z M 60 0 " clip-rule="nonzero"/></clipPath><clipPath id="5b057c6ddd"><path d="M 62 2 L 273 2 L 273 254.808594 L 62 254.808594 Z M 62 2 " clip-rule="nonzero"/></clipPath><clipPath id="0488d9daf1"><path d="M 61 1 L 271 1 L 271 254.808594 L 61 254.808594 Z M 61 1 " clip-rule="nonzero"/></clipPath><clipPath id="537de9b4d3"><path d="M 208 17.085938 L 269.828125 17.085938 L 269.828125 127.503906 L 208 127.503906 Z M 208 17.085938 " clip-rule="nonzero"/></clipPath><clipPath id="b734994cf4"><path d="M 98.769531 348.097656 L 116.703125 348.097656 L 116.703125 366.03125 L 98.769531 366.03125 Z M 98.769531 348.097656 " clip-rule="nonzero"/></clipPath><clipPath id="04253e648e"><path d="M 107.738281 348.097656 C 102.785156 348.097656 98.769531 352.113281 98.769531 357.066406 C 98.769531 362.019531 102.785156 366.03125 107.738281 366.03125 C 112.6875 366.03125 116.703125 362.019531 116.703125 357.066406 C 116.703125 352.113281 112.6875 348.097656 107.738281 348.097656 Z M 107.738281 348.097656 " clip-rule="nonzero"/></clipPath><clipPath id="6b522d6560"><path d="M 251.039062 348.097656 L 268.972656 348.097656 L 268.972656 366.03125 L 251.039062 366.03125 Z M 251.039062 348.097656 " clip-rule="nonzero"/></clipPath><clipPath id="2bb47c712e"><path d="M 260.007812 348.097656 C 255.054688 348.097656 251.039062 352.113281 251.039062 357.066406 C 251.039062 362.019531 255.054688 366.03125 260.007812 366.03125 C 264.957031 366.03125 268.972656 362.019531 268.972656 357.066406 C 268.972656 352.113281 264.957031 348.097656 260.007812 348.097656 Z M 260.007812 348.097656 " clip-rule="nonzero"/></clipPath></defs><g clip-path="url(#427a8dbf81)"><g clip-path="url(#ad17c445cf)"><path fill="#000000" d="M 82.089844 22.121094 L 281.875 22.121094 L 281.875 270.292969 L 82.089844 270.292969 Z M 82.089844 22.121094 " fill-opacity="1" fill-rule="nonzero"/></g></g><g clip-path="url(#1241306941)"><path fill="#000000" d="M 270.761719 162.191406 L 259.921875 230.25 L 256.730469 239.59375 L 249.871094 254.800781 C 249.871094 254.800781 243.042969 251.671875 229.269531 222.304688 C 227.882812 222.921875 226.050781 223.679688 223.859375 224.589844 L 223.601562 224.695312 C 217.667969 227.140625 209.550781 230.496094 204.230469 233.582031 L 203.691406 233.894531 C 195.84375 238.464844 182.707031 246.109375 153.480469 246.109375 C 151.933594 246.109375 150.316406 246.085938 148.671875 246.039062 L 145.007812 245.945312 C 116.472656 245.164062 107.859375 244.933594 94.960938 244.933594 C 82.277344 244.933594 75.222656 238.476562 71.015625 234.621094 C 70.648438 234.28125 70.3125 233.980469 70 233.695312 L 69.886719 233.597656 C 69.351562 233.125 68.664062 232.632812 67.9375 232.109375 C 63.941406 229.238281 57.910156 224.90625 61.824219 212.355469 C 63.640625 206.535156 63.253906 200.210938 62.804688 192.882812 C 62.242188 183.5 61.59375 172.867188 65.027344 159.507812 C 68.75 145.058594 76.714844 127.4375 83.742188 111.898438 C 88.320312 101.769531 92.640625 92.234375 95.003906 85.207031 C 96.058594 82.109375 97.09375 78.914062 98.0625 75.902344 L 98.082031 75.824219 C 102.992188 60.628906 107.636719 46.277344 116.011719 36.046875 C 125.351562 24.644531 133.597656 16.652344 139.210938 13.539062 C 141.09375 12.492188 142.382812 11.289062 143.628906 10.117188 C 145.59375 8.289062 147.621094 6.398438 151.359375 5.582031 C 152.878906 5.246094 154.191406 4.269531 155.460938 3.324219 C 157.214844 2.035156 159.191406 0.570312 161.871094 0.570312 C 163.664062 0.570312 165.535156 1.214844 167.585938 2.550781 C 168.011719 2.5 168.609375 2.445312 169.320312 2.445312 C 172.011719 2.445312 175.921875 3.1875 179.242188 6.753906 L 180.8125 8.417969 C 188.191406 16.238281 194.867188 23.605469 195.492188 27.789062 C 195.96875 30.941406 195.445312 33.5 194.746094 35.519531 C 197.027344 35.769531 198.863281 36.570312 200.230469 37.910156 C 203.246094 40.867188 203.0625 45.464844 202.980469 47.675781 L 202.96875 47.910156 C 202.820312 51.84375 199.398438 53.222656 195.433594 54.820312 L 194.78125 55.089844 C 192.816406 55.882812 190.125 56.289062 186.78125 56.289062 C 185.425781 56.289062 184.25 56.214844 183.492188 56.15625 C 175.164062 62.453125 158.1875 64.34375 156.25 64.539062 C 151.6875 65.023438 144.980469 67.023438 143.085938 67.609375 C 142.214844 69.253906 141.28125 71.742188 140.316406 75.015625 L 140.253906 75.234375 L 140.253906 75.238281 L 140.207031 75.398438 C 139.941406 76.3125 139.671875 77.273438 139.417969 78.261719 L 139.242188 78.914062 C 139.023438 79.773438 138.800781 80.667969 138.59375 81.582031 C 138.53125 81.847656 138.46875 82.109375 138.402344 82.382812 C 138.210938 83.21875 138.015625 84.078125 137.835938 84.945312 C 137.761719 85.242188 137.703125 85.527344 137.648438 85.808594 C 137.472656 86.652344 137.300781 87.480469 137.128906 88.328125 L 136.941406 89.253906 C 136.789062 90.0625 136.636719 90.886719 136.480469 91.714844 C 136.417969 92.046875 136.363281 92.347656 136.3125 92.652344 C 136.15625 93.5 136.015625 94.324219 135.871094 95.148438 C 135.816406 95.46875 135.765625 95.773438 135.714844 96.082031 C 135.570312 96.921875 135.441406 97.769531 135.308594 98.605469 L 135.121094 99.796875 C 135.007812 100.570312 134.894531 101.34375 134.785156 102.113281 C 134.742188 102.40625 134.699219 102.667969 134.671875 102.929688 C 134.535156 103.875 134.410156 104.800781 134.289062 105.710938 L 134.207031 106.398438 C 134.082031 107.425781 133.960938 108.445312 133.847656 109.445312 L 133.796875 109.871094 C 132.9375 117.703125 132.710938 123.835938 133.160156 127.117188 C 134.320312 135.539062 136.574219 152.746094 137.660156 161.054688 C 148.117188 150.980469 159.84375 146.082031 173.449219 146.082031 C 177.355469 146.082031 180.660156 146.46875 183.316406 146.78125 C 183.886719 146.851562 184.472656 146.882812 185.058594 146.882812 C 192.4375 146.882812 200.246094 141.613281 209.289062 135.511719 C 212.589844 133.289062 216 130.984375 219.632812 128.78125 C 227.421875 124.070312 237.230469 121.675781 248.789062 121.675781 C 252.777344 121.675781 256.527344 121.972656 259.78125 122.375 C 259.792969 122.375 259.804688 122.378906 259.816406 122.378906 C 259.984375 122.398438 260.15625 122.421875 260.328125 122.441406 L 260.351562 122.441406 C 261.09375 122.539062 261.8125 122.640625 262.5 122.75 L 262.507812 122.75 C 267.734375 123.734375 270.703125 126.136719 270.703125 126.136719 L 268.828125 128.535156 C 268.828125 128.535156 270.609375 149.441406 270.609375 149.664062 C 270.609375 149.886719 270.761719 162.191406 270.761719 162.191406 Z M 270.761719 162.191406 " fill-opacity="1" fill-rule="nonzero"/></g><g clip-path="url(#5b057c6ddd)"><path fill="#ffffff" d="M 249.871094 254.800781 C 239.675781 244.003906 231.898438 224.429688 230.425781 220.566406 L 230.203125 219.992188 L 229.644531 220.257812 C 228.234375 220.929688 226.015625 221.847656 223.203125 223.015625 L 222.941406 223.121094 C 216.96875 225.589844 208.789062 228.960938 203.371094 232.109375 L 202.832031 232.421875 C 195.128906 236.90625 182.242188 244.402344 153.476562 244.402344 C 151.945312 244.402344 150.339844 244.378906 148.71875 244.335938 L 145.050781 244.238281 C 116.496094 243.460938 107.878906 243.226562 94.953125 243.226562 C 82.933594 243.226562 76.191406 237.046875 72.164062 233.359375 C 71.804688 233.023438 71.457031 232.71875 71.140625 232.425781 L 71.023438 232.324219 C 70.410156 231.785156 69.6875 231.269531 68.929688 230.722656 C 64.902344 227.828125 59.902344 224.238281 63.453125 212.863281 C 65.359375 206.742188 64.964844 200.273438 64.503906 192.777344 C 63.949219 183.515625 63.308594 173.023438 66.679688 159.929688 C 70.363281 145.621094 78.296875 128.074219 85.292969 112.59375 C 89.890625 102.429688 94.226562 92.851562 96.621094 85.746094 C 97.675781 82.644531 98.710938 79.4375 99.675781 76.421875 L 99.699219 76.347656 C 104.558594 61.308594 109.148438 47.109375 117.324219 37.128906 C 126.535156 25.890625 134.597656 18.039062 140.03125 15.027344 C 142.101562 13.878906 143.53125 12.539062 144.789062 11.355469 C 146.664062 9.605469 148.433594 7.964844 151.71875 7.242188 C 153.59375 6.828125 155.121094 5.695312 156.46875 4.695312 C 158.15625 3.449219 159.75 2.273438 161.863281 2.273438 C 163.410156 2.273438 165.082031 2.910156 166.988281 4.21875 L 167.179688 4.347656 L 167.410156 4.308594 C 167.734375 4.25 168.40625 4.15625 169.304688 4.15625 C 171.660156 4.15625 175.070312 4.808594 177.980469 7.917969 L 179.554688 9.589844 C 186.148438 16.578125 193.234375 24.351562 193.785156 28.039062 C 194.210938 30.863281 193.851562 33.351562 192.578125 36.347656 L 192.242188 37.140625 L 193.101562 37.140625 C 195.691406 37.140625 197.671875 37.808594 199.019531 39.128906 C 201.492188 41.550781 201.335938 45.640625 201.253906 47.609375 L 201.242188 47.824219 C 201.136719 50.679688 198.609375 51.695312 194.78125 53.242188 L 194.125 53.503906 C 192.390625 54.207031 189.847656 54.578125 186.769531 54.578125 C 185.171875 54.578125 183.832031 54.476562 183.183594 54.417969 L 182.957031 54.394531 L 182.78125 54.539062 C 174.839844 60.863281 156.832031 62.761719 156.070312 62.839844 C 150.953125 63.382812 143.558594 65.667969 142.128906 66.117188 L 141.921875 66.183594 L 141.8125 66.375 C 140.816406 68.121094 139.757812 70.863281 138.671875 74.527344 L 138.546875 74.972656 C 138.277344 75.886719 138.011719 76.847656 137.753906 77.835938 L 137.585938 78.484375 C 137.363281 79.371094 137.136719 80.269531 136.917969 81.199219 C 136.855469 81.460938 136.792969 81.730469 136.730469 82.003906 C 136.539062 82.84375 136.34375 83.710938 136.15625 84.589844 C 136.089844 84.882812 136.027344 85.183594 135.96875 85.484375 C 135.792969 86.300781 135.621094 87.140625 135.453125 87.988281 L 135.265625 88.917969 C 135.105469 89.742188 134.949219 90.578125 134.796875 91.421875 C 134.734375 91.734375 134.679688 92.058594 134.625 92.378906 C 134.472656 93.195312 134.332031 94.023438 134.1875 94.859375 C 134.132812 95.175781 134.082031 95.488281 134.027344 95.808594 C 133.886719 96.648438 133.75 97.496094 133.621094 98.34375 L 133.4375 99.542969 C 133.316406 100.328125 133.203125 101.101562 133.097656 101.878906 C 133.050781 102.152344 133.011719 102.4375 132.976562 102.71875 C 132.847656 103.640625 132.71875 104.566406 132.601562 105.480469 L 132.515625 106.179688 C 132.386719 107.214844 132.265625 108.246094 132.152344 109.25 L 132.105469 109.652344 C 131.222656 117.652344 131.003906 123.925781 131.46875 127.34375 C 132.75 136.648438 135.367188 156.636719 136.265625 163.554688 L 136.417969 164.71875 L 137.238281 163.875 C 147.769531 153.039062 159.613281 147.777344 173.449219 147.777344 C 177.25 147.777344 180.503906 148.164062 183.117188 148.46875 C 183.753906 148.542969 184.402344 148.582031 185.058594 148.582031 C 192.960938 148.582031 200.96875 143.179688 210.242188 136.921875 C 213.527344 134.703125 216.921875 132.414062 220.519531 130.234375 C 228.035156 125.683594 237.546875 123.375 248.789062 123.375 C 259.871094 123.375 269.050781 125.6875 270.703125 126.132812 C 276.117188 167.625 271.757812 223.234375 249.871094 254.800781 Z M 249.871094 254.800781 " fill-opacity="1" fill-rule="nonzero"/></g><g clip-path="url(#0488d9daf1)"><path fill="#000000" d="M 270.703125 126.136719 C 270.242188 125.800781 269.378906 125.296875 268.945312 125.011719 C 269.628906 125.457031 240.242188 117.632812 220.230469 129.753906 C 216.640625 131.929688 213.226562 134.230469 209.929688 136.453125 C 200.042969 143.128906 191.496094 148.890625 183.191406 147.914062 C 173.835938 146.808594 155.171875 144.621094 136.835938 163.488281 C 136.15625 158.28125 133.390625 137.113281 132.039062 127.269531 C 131.546875 123.710938 131.851562 117.226562 132.675781 109.726562 C 132.691406 109.589844 132.703125 109.457031 132.71875 109.320312 C 132.835938 108.3125 132.953125 107.289062 133.085938 106.253906 C 133.113281 106.027344 133.140625 105.796875 133.171875 105.5625 C 133.289062 104.648438 133.414062 103.71875 133.546875 102.792969 C 133.578125 102.515625 133.621094 102.238281 133.664062 101.957031 C 133.785156 101.089844 133.914062 100.21875 134.046875 99.34375 C 134.089844 99.035156 134.144531 98.734375 134.1875 98.429688 C 134.320312 97.585938 134.457031 96.742188 134.597656 95.898438 C 134.648438 95.585938 134.699219 95.273438 134.757812 94.957031 C 134.898438 94.125 135.042969 93.296875 135.195312 92.472656 C 135.246094 92.152344 135.304688 91.835938 135.367188 91.523438 C 135.519531 90.6875 135.671875 89.851562 135.832031 89.03125 C 135.894531 88.71875 135.957031 88.40625 136.019531 88.101562 C 136.191406 87.253906 136.363281 86.417969 136.539062 85.59375 C 136.59375 85.296875 136.65625 85.003906 136.726562 84.707031 C 136.914062 83.832031 137.105469 82.96875 137.300781 82.128906 C 137.363281 81.855469 137.425781 81.585938 137.488281 81.324219 C 137.703125 80.398438 137.925781 79.5 138.148438 78.625 C 138.207031 78.410156 138.261719 78.195312 138.320312 77.976562 C 138.582031 76.972656 138.847656 76.003906 139.121094 75.078125 L 139.121094 75.074219 C 139.15625 74.941406 139.195312 74.816406 139.230469 74.691406 C 140.246094 71.257812 141.289062 68.464844 142.320312 66.660156 C 143.648438 66.242188 151.089844 63.945312 156.144531 63.410156 C 158.09375 63.210938 175.289062 61.25 183.152344 54.984375 C 184.449219 55.105469 190.535156 55.582031 194.359375 54.03125 L 194.996094 53.777344 C 198.898438 52.203125 201.714844 51.070312 201.835938 47.851562 L 201.847656 47.632812 C 201.925781 45.585938 202.089844 41.320312 199.441406 38.722656 C 197.972656 37.285156 195.84375 36.566406 193.125 36.570312 C 194.25 33.914062 194.871094 31.265625 194.371094 27.953125 C 193.796875 24.101562 186.953125 16.574219 179.992188 9.195312 C 179.417969 8.589844 178.890625 8.027344 178.417969 7.527344 C 174.066406 2.863281 168.585938 3.519531 167.328125 3.746094 C 161.867188 0.00390625 158.953125 2.160156 156.136719 4.238281 C 154.765625 5.257812 153.351562 6.304688 151.605469 6.691406 C 148.160156 7.445312 146.339844 9.144531 144.40625 10.945312 C 143.105469 12.167969 141.75 13.429688 139.765625 14.535156 C 134.257812 17.585938 126.136719 25.488281 116.894531 36.769531 C 108.636719 46.847656 104.027344 61.128906 99.140625 76.25 C 98.15625 79.3125 97.132812 82.484375 96.085938 85.570312 C 93.703125 92.636719 89.375 102.207031 84.789062 112.34375 C 77.777344 127.847656 69.832031 145.429688 66.132812 159.792969 C 62.742188 172.972656 63.378906 183.511719 63.941406 192.816406 C 64.398438 200.261719 64.785156 206.695312 62.910156 212.699219 C 59.242188 224.464844 64.648438 228.347656 68.597656 231.183594 C 69.347656 231.722656 70.058594 232.234375 70.648438 232.75 C 70.996094 233.0625 71.378906 233.40625 71.78125 233.78125 C 75.871094 237.527344 82.722656 243.796875 94.960938 243.796875 C 107.6875 243.796875 115.601562 244.003906 145.039062 244.808594 L 148.707031 244.902344 C 150.347656 244.949219 151.933594 244.972656 153.480469 244.972656 C 182.390625 244.972656 195.269531 237.480469 203.121094 232.910156 L 203.660156 232.597656 C 209.003906 229.496094 217.183594 226.113281 223.164062 223.644531 C 226.058594 222.445312 228.425781 221.46875 229.894531 220.769531 C 231.316406 224.5 239.367188 244.035156 249.871094 254.800781 C 249.738281 254.617188 247.207031 251.832031 245.996094 249.449219 C 244.925781 247.519531 241.699219 241.71875 242.558594 233.660156 C 242.558594 233.660156 245.5625 236.996094 255.472656 239.667969 C 255.472656 239.667969 241.007812 211.648438 249.910156 198.964844 C 249.910156 198.964844 232.546875 188.585938 228.238281 167.085938 C 228.238281 167.085938 227.5 189.398438 236.699219 198.261719 C 236.699219 198.261719 208.519531 198.585938 199.59375 173.460938 C 192.414062 153.25 202.402344 143.210938 206.589844 140.058594 C 207.148438 139.6875 207.71875 139.308594 208.285156 138.925781 C 234.789062 122.039062 267.71875 155.371094 267.71875 155.371094 C 266.601562 146.917969 261.480469 145.140625 261.480469 145.140625 C 261.480469 145.140625 247.902344 140.46875 245.226562 132.6875 C 242.558594 124.898438 270.703125 126.136719 270.703125 126.136719 Z M 200.691406 47.8125 C 200.605469 50.175781 198.535156 51.121094 194.570312 52.71875 L 193.925781 52.980469 C 192.15625 53.695312 189.796875 53.941406 187.71875 53.992188 C 185.269531 53.183594 184.472656 50.472656 184.25 49.363281 C 184.554688 49.210938 184.851562 49.035156 185.136719 48.84375 C 186.199219 51.742188 189.011719 52.335938 189.011719 52.335938 C 187.117188 50.9375 186.644531 47.582031 186.644531 47.582031 C 188.28125 45.925781 189.515625 43.710938 190.648438 41.539062 C 190.65625 41.539062 195.96875 39.933594 197.414062 44.386719 C 198.859375 48.835938 194.96875 51.558594 194.96875 51.558594 C 194.96875 51.558594 199.53125 50.3125 199.03125 44.152344 C 199.03125 44.152344 200.578125 44.5 200.726562 46.835938 C 200.71875 47.101562 200.707031 47.359375 200.695312 47.585938 Z M 125.371094 125.746094 C 95.472656 135.835938 91.605469 168.671875 91.511719 169.257812 C 91.71875 168.691406 97.144531 154.113281 111.277344 144.140625 C 111.34375 144.09375 111.414062 144.046875 111.480469 143.996094 C 112.625 143.199219 113.832031 142.433594 115.089844 141.707031 C 114.746094 141.988281 109.207031 146.707031 105.867188 157.371094 C 105.867188 157.371094 111.542969 147.367188 125.011719 145.359375 C 125.011719 145.359375 135.714844 163.890625 124.5 178.316406 C 124.335938 178.519531 124.167969 178.71875 124.011719 178.925781 C 123.980469 178.964844 123.953125 179 123.925781 179.03125 C 123.878906 179.089844 123.832031 179.140625 123.789062 179.195312 C 115.015625 190.085938 110.839844 194.957031 106.21875 198.300781 C 94 197.636719 95.402344 205.972656 95.402344 205.972656 L 101.222656 202.59375 C 109.980469 198.214844 113.25 194.144531 128.972656 174.570312 C 130.238281 172.992188 131.589844 171.3125 133.027344 169.523438 C 142.277344 158.023438 151.832031 152.574219 160.375 150.140625 C 160.382812 150.140625 182.230469 144.707031 188.238281 174.503906 C 194.25 204.304688 125.234375 217.425781 125.234375 217.425781 C 125.234375 217.425781 155.957031 220.542969 179.777344 205.972656 C 179.777344 205.972656 175.101562 215.203125 160.632812 221.878906 C 160.632812 221.878906 181.78125 219.207031 196.03125 207.195312 C 210.277344 195.1875 235.992188 206.078125 235.992188 206.078125 C 235.328125 209.28125 232.9375 217.9375 229.945312 219.480469 C 228.609375 220.160156 225.882812 221.285156 222.726562 222.59375 C 220.269531 223.613281 217.441406 224.78125 214.589844 226.019531 L 214.597656 226.019531 C 214.597656 226.019531 199.742188 230.699219 185.644531 230.257812 C 171.542969 229.8125 140.527344 232.035156 119.59375 236.484375 C 120.277344 236.34375 154.230469 232.433594 166.453125 237.527344 C 178.332031 242.476562 156.222656 243.765625 154.976562 243.835938 C 152.976562 243.851562 150.902344 243.835938 148.734375 243.777344 L 145.066406 243.679688 C 115.617188 242.886719 107.703125 242.667969 94.960938 242.667969 C 83.167969 242.667969 76.519531 236.585938 72.550781 232.949219 C 72.140625 232.574219 71.757812 232.222656 71.402344 231.910156 C 70.769531 231.351562 70.035156 230.828125 69.261719 230.273438 C 67.367188 228.910156 65.25 227.386719 63.980469 224.902344 C 60.910156 218.355469 68.242188 213.0625 68.242188 213.0625 C 76.851562 218.398438 80.855469 229.523438 80.855469 229.523438 C 80.855469 229.523438 80.707031 222.851562 73.289062 206.984375 C 65.9375 191.265625 66.703125 162.765625 66.71875 162.242188 C 66.882812 161.53125 67.054688 160.808594 67.242188 160.082031 C 70.910156 145.816406 78.835938 128.285156 85.835938 112.824219 C 90.425781 102.664062 94.765625 93.0625 97.171875 85.945312 C 98.21875 82.847656 99.246094 79.675781 100.234375 76.613281 C 105.082031 61.597656 109.660156 47.410156 117.78125 37.503906 C 126.933594 26.324219 134.941406 18.523438 140.320312 15.535156 C 142.425781 14.367188 143.832031 13.054688 145.191406 11.789062 C 146.785156 10.300781 148.203125 8.980469 150.496094 8.191406 C 154.128906 7.507812 160.699219 13.679688 158.867188 9.253906 C 157.035156 4.820312 159.421875 3.480469 159.8125 3.289062 C 160.886719 2.847656 162.066406 2.695312 163.488281 3.097656 C 166.429688 4.109375 168.820312 8.15625 169.324219 9.066406 L 169.429688 9.253906 C 169.429688 9.253906 170.667969 4.199219 174.753906 6.09375 C 175.710938 6.621094 176.675781 7.332031 177.585938 8.308594 C 178.058594 8.816406 178.589844 9.378906 179.164062 9.988281 C 182.753906 13.789062 188.679688 20.082031 191.578125 24.558594 C 187.414062 26.65625 185.421875 31.550781 185.421875 31.550781 C 187.890625 29.234375 190.210938 28.089844 190.210938 28.089844 C 187.355469 30.386719 185.871094 34.148438 185.871094 34.148438 C 190.660156 29.234375 193.398438 29.722656 193.402344 29.722656 C 193.546875 33.257812 192.277344 36.003906 190.523438 39.355469 L 190.0625 40.230469 C 187.839844 44.535156 185.535156 48.957031 180.808594 49.074219 C 181.507812 48.164062 182.15625 47.246094 182.769531 46.363281 L 183.144531 45.835938 C 186.820312 40.621094 185.863281 37.765625 183.867188 33.160156 C 182.945312 31.035156 179.363281 24.769531 176.496094 19.859375 C 175.878906 17.261719 174.742188 13.351562 173.320312 12.675781 C 170.046875 11.105469 171.425781 13.667969 171.425781 13.667969 L 172.601562 15.476562 C 175 19.53125 181.5625 30.714844 182.828125 33.613281 C 183.046875 34.121094 183.246094 34.597656 183.4375 35.058594 C 179.316406 34.660156 176.988281 37.832031 176.988281 37.832031 C 179.167969 36.421875 182.007812 36.757812 182.007812 36.757812 C 176.402344 37.871094 175.402344 42.503906 175.402344 42.503906 C 178.472656 38.339844 182.917969 38.480469 184.460938 38.671875 C 184.652344 40.625 184.078125 42.527344 182.207031 45.175781 L 181.835938 45.703125 C 178.664062 50.230469 174.738281 55.804688 166.875 55.078125 C 168.484375 53.433594 169.785156 51.535156 170.828125 50.019531 C 171.351562 49.257812 171.800781 48.59375 172.210938 48.082031 C 174.421875 45.289062 173.058594 41.515625 171.613281 37.515625 L 171.410156 36.945312 C 170.628906 34.78125 168.273438 29.460938 166.226562 24.925781 C 165.871094 22.304688 165.074219 17.9375 163.652344 17.089844 C 160.535156 15.238281 161.679688 17.914062 161.679688 17.914062 L 162.429688 19.324219 C 164.207031 23.195312 169.179688 34.082031 170.34375 37.332031 L 170.550781 37.902344 C 170.863281 38.769531 171.167969 39.628906 171.4375 40.457031 C 171.976562 42.355469 171.3125 42.253906 170.914062 42.054688 C 170.828125 42 170.738281 41.949219 170.652344 41.894531 C 167.789062 40.320312 163.972656 42.277344 163.972656 42.277344 C 167.859375 41.664062 169.882812 43.390625 169.882812 43.390625 C 164.648438 42.277344 161.203125 45.175781 161.203125 45.175781 C 161.203125 45.175781 164.375 44.335938 167.660156 44.664062 C 170.941406 44.992188 170.507812 48.488281 170.507812 48.488281 C 170.316406 48.769531 170.117188 49.058594 169.902344 49.371094 C 167.789062 52.453125 164.898438 56.664062 160.753906 57.511719 C 156.785156 58.316406 154.566406 56.589844 153.769531 55.777344 C 154.613281 54.894531 155.320312 53.71875 156.097656 52.421875 C 156.636719 51.519531 157.203125 50.585938 157.882812 49.605469 C 160.945312 45.179688 158.835938 40.820312 158.601562 40.367188 L 155.65625 32.910156 C 155.65625 32.910156 154.910156 24.308594 152.847656 23.089844 C 149.730469 21.234375 150.875 23.914062 150.875 23.914062 L 156.757812 38.796875 C 153.457031 38.46875 150.738281 40.492188 150.738281 40.492188 C 153.6875 40.105469 155.523438 41.15625 155.523438 41.15625 C 150.902344 41.214844 149.238281 43.6875 149.238281 43.6875 C 149.238281 43.6875 152.242188 42.714844 154.800781 42.714844 C 157.351562 42.714844 158.378906 44.640625 158.386719 44.660156 C 158.351562 45.949219 157.992188 47.449219 156.945312 48.957031 C 156.246094 49.972656 155.648438 50.960938 155.125 51.835938 C 153.363281 54.769531 152.296875 56.542969 149.488281 56.167969 C 147.632812 55.917969 146.015625 54.984375 144.9375 53.542969 C 143.71875 51.921875 143.261719 49.820312 143.621094 47.472656 L 143.660156 47.199219 C 143.660156 47.199219 143.871094 45.425781 145.0625 43.425781 C 145.0625 43.425781 142.089844 44.164062 142.386719 39.121094 C 142.386719 39.121094 138.425781 40.945312 135.136719 35.882812 C 135.136719 35.882812 135.148438 36.167969 135.234375 36.605469 C 135.691406 39.355469 137.230469 40.863281 138.539062 41.636719 C 135.917969 41.828125 130.554688 41.855469 127.089844 39.332031 C 127.089844 39.332031 129.710938 43.792969 140.617188 44.640625 C 141.1875 46 142.023438 47.070312 142.421875 47.535156 C 142.109375 48.5 141 52.019531 138.957031 55.167969 C 138.957031 55.179688 138.949219 55.183594 138.945312 55.191406 C 137.324219 57.6875 135.121094 59.953125 132.265625 60.515625 C 132.277344 60.515625 132.292969 60.511719 132.304688 60.511719 C 132.292969 60.511719 132.28125 60.515625 132.265625 60.523438 C 132.070312 60.554688 131.878906 60.597656 131.679688 60.613281 C 131.546875 60.628906 131.410156 60.640625 131.277344 60.648438 C 131.277344 60.648438 135.492188 61.078125 140.613281 58.113281 C 140.613281 58.113281 138.917969 61.375 135.941406 62.636719 C 135.941406 62.636719 141.875 62.195312 144.621094 57.300781 C 144.621094 57.300781 147.808594 58.039062 148.703125 61.671875 C 148.703125 61.671875 149.464844 59.1875 148.140625 57.054688 C 148.140625 57.054688 150.910156 58.242188 152.304688 61.359375 C 152.304688 61.359375 152.605469 59.527344 151.625 57.167969 C 152.097656 57.027344 152.53125 56.816406 152.917969 56.539062 C 153.617188 57.261719 155.210938 58.554688 157.820312 58.816406 C 157.820312 58.816406 157.820312 58.816406 157.816406 58.816406 C 157.816406 58.816406 157.820312 58.816406 157.839844 58.816406 C 158.136719 58.847656 158.4375 58.863281 158.761719 58.863281 C 159.109375 58.863281 159.476562 58.839844 159.851562 58.800781 C 162.589844 58.664062 167.796875 58.003906 173.699219 55.195312 C 173.699219 55.195312 173.699219 55.195312 173.695312 55.195312 C 176.253906 54.078125 178.242188 52.210938 179.925781 50.183594 C 182.953125 50.6875 182.804688 53.808594 182.804688 53.808594 L 185.425781 53.984375 C 184.027344 53.941406 183.070312 53.839844 183.042969 53.839844 L 182.804688 53.808594 L 182.621094 53.964844 C 176.515625 58.976562 163.035156 61.558594 156.035156 62.289062 C 154.640625 62.4375 153.101562 62.707031 151.550781 63.027344 C 151.371094 63.070312 151.195312 63.109375 151.011719 63.144531 C 143.558594 64.722656 140.089844 63.96875 140.089844 63.96875 C 140.089844 63.96875 131.179688 65.820312 125.539062 62.113281 C 125.539062 62.113281 129.535156 66.71875 135.917969 65.507812 L 135.914062 65.507812 C 129.75 69.96875 121.90625 63.371094 121.90625 63.371094 C 128.089844 70.957031 134.148438 68.484375 136.375 69.222656 C 137.226562 69.507812 137.339844 71.667969 137.152344 74.226562 C 137.152344 74.226562 137.148438 74.226562 137.148438 74.226562 C 135.097656 88.339844 125.371094 125.746094 125.371094 125.746094 Z M 128.648438 60.601562 C 128.648438 60.601562 118.257812 59.953125 113.0625 50.46875 C 113.0625 50.46875 115.289062 61.691406 128.648438 60.601562 Z M 157.128906 44.984375 C 157.128906 44.984375 155.960938 43.640625 151.894531 44.367188 C 151.894531 44.367188 154.453125 45.648438 157.128906 44.984375 Z M 169.429688 40.164062 C 164.808594 37.660156 162.585938 41.714844 162.585938 41.714844 C 165.660156 39.53125 169.429688 40.164062 169.429688 40.164062 Z M 180.210938 34.210938 C 175.351562 33.488281 175.402344 38.160156 175.402344 38.160156 C 176.757812 35.097656 180.210938 34.210938 180.210938 34.210938 Z M 191.429688 31.636719 C 191.429688 31.636719 188.054688 33.535156 186.53125 36.148438 C 186.53125 36.148438 190.09375 34.75 191.429688 31.636719 Z M 94.066406 145.140625 C 98.523438 125.570312 120.859375 74.414062 120.859375 74.414062 C 100.230469 91.761719 94.066406 145.140625 94.066406 145.140625 Z M 110.988281 78.414062 C 98.742188 85.753906 100.792969 100.65625 100.792969 100.65625 C 103.726562 87.53125 110.988281 78.414062 110.988281 78.414062 Z M 80.855469 213.867188 C 80.855469 213.867188 77.765625 194.964844 71.554688 174.503906 C 71.558594 174.496094 70.542969 195.1875 80.855469 213.867188 Z M 135.132812 209.539062 L 137.304688 208.976562 L 139.457031 208.320312 L 141.585938 207.605469 L 143.679688 206.796875 C 144.367188 206.507812 145.0625 206.230469 145.75 205.929688 L 147.78125 204.980469 C 148.453125 204.648438 149.113281 204.304688 149.777344 203.957031 C 152.410156 202.542969 154.941406 200.9375 157.269531 199.066406 C 154.566406 200.335938 151.898438 201.59375 149.195312 202.761719 C 148.515625 203.042969 147.835938 203.324219 147.164062 203.621094 L 145.125 204.445312 C 144.433594 204.699219 143.757812 204.980469 143.074219 205.246094 L 141.011719 206.003906 L 138.933594 206.734375 L 136.839844 207.421875 L 134.742188 208.089844 C 134.035156 208.289062 133.328125 208.496094 132.628906 208.71875 C 129.800781 209.539062 126.945312 210.269531 124.054688 211.015625 C 127.042969 210.976562 130.019531 210.601562 132.949219 210.007812 C 133.675781 209.867188 134.410156 209.707031 135.132812 209.539062 Z M 200.503906 158.636719 C 200.46875 159.304688 200.433594 159.96875 200.425781 160.632812 L 200.480469 162.632812 C 200.539062 163.300781 200.617188 163.964844 200.691406 164.628906 L 201.019531 166.605469 L 201.503906 168.550781 L 202.109375 170.460938 L 202.851562 172.320312 C 203.132812 172.929688 203.429688 173.523438 203.722656 174.121094 C 204.964844 176.472656 206.550781 178.652344 208.480469 180.449219 C 207.101562 178.207031 205.902344 175.921875 204.929688 173.558594 C 204.707031 172.957031 204.480469 172.359375 204.242188 171.769531 L 203.644531 169.957031 C 203.480469 169.339844 203.296875 168.734375 203.121094 168.121094 L 202.699219 166.261719 L 202.347656 164.386719 C 202.261719 163.753906 202.195312 163.125 202.097656 162.492188 L 201.925781 160.589844 C 201.910156 159.953125 201.878906 159.316406 201.839844 158.671875 C 201.789062 156.113281 201.984375 153.546875 202.359375 150.941406 C 201.292969 153.363281 200.707031 155.988281 200.503906 158.636719 Z M 207.210938 151.976562 C 207.398438 150.105469 207.65625 148.242188 207.886719 146.320312 C 206.976562 148.03125 206.347656 149.875 205.902344 151.753906 C 205.449219 153.636719 205.203125 155.574219 205.140625 157.511719 C 205.078125 159.453125 205.203125 161.402344 205.539062 163.3125 C 205.863281 165.21875 206.378906 167.097656 207.175781 168.859375 C 207.070312 166.925781 206.933594 165.042969 206.859375 163.167969 C 206.800781 161.292969 206.785156 159.429688 206.839844 157.5625 C 206.898438 155.707031 207.03125 153.847656 207.210938 151.976562 Z M 153.90625 51.746094 C 154.3125 51.144531 154.640625 50.5 154.898438 49.824219 C 155.140625 49.144531 155.324219 48.4375 155.339844 47.699219 C 154.878906 48.273438 154.492188 48.851562 154.105469 49.421875 L 152.96875 51.117188 L 151.832031 52.808594 C 151.457031 53.382812 151.0625 53.957031 150.710938 54.605469 C 151.386719 54.308594 151.972656 53.878906 152.515625 53.390625 C 153.039062 52.898438 153.503906 52.347656 153.90625 51.746094 Z M 161.945312 55.304688 C 162.851562 54.929688 163.710938 54.417969 164.46875 53.785156 C 165.230469 53.160156 165.894531 52.417969 166.4375 51.597656 C 166.976562 50.78125 167.398438 49.875 167.589844 48.921875 C 166.96875 49.671875 166.375 50.382812 165.742188 51.046875 C 165.109375 51.710938 164.4375 52.332031 163.746094 52.90625 C 163.046875 53.480469 162.3125 54.019531 161.539062 54.515625 C 160.761719 55.007812 159.949219 55.457031 159.097656 55.929688 C 160.074219 55.925781 161.042969 55.683594 161.945312 55.304688 Z M 174.394531 51.542969 C 175.398438 50.855469 176.300781 50.042969 177.136719 49.15625 C 177.957031 48.257812 178.703125 47.289062 179.3125 46.246094 C 179.925781 45.203125 180.429688 44.097656 180.746094 42.925781 C 180.011719 43.886719 179.3125 44.828125 178.582031 45.746094 C 177.847656 46.652344 177.101562 47.539062 176.300781 48.382812 C 175.523438 49.238281 174.683594 50.046875 173.835938 50.847656 C 172.980469 51.644531 172.089844 52.410156 171.1875 53.214844 C 172.328125 52.820312 173.398438 52.234375 174.394531 51.542969 Z M 105.820312 132.390625 C 105.820312 132.390625 113.507812 124.382812 121.96875 121.714844 L 128.648438 97.398438 L 119.300781 114.894531 L 120.039062 103.925781 C 120.039062 103.917969 111.796875 115.191406 105.820312 132.390625 Z M 105.820312 132.390625 " fill-opacity="1" fill-rule="nonzero"/></g><g clip-path="url(#537de9b4d3)"><path fill="#ffffff" d="M 208.011719 72.160156 C 208.011719 72.160156 228.671875 72.160156 228.671875 72.160156 C 228.671875 72.160156 208.011719 127.246094 208.011719 127.246094 C 208.011719 127.246094 269.984375 51.503906 269.984375 51.503906 C 269.984375 51.503906 242.441406 51.410156 242.441406 51.410156 C 242.441406 51.410156 256.214844 17.074219 256.214844 17.074219 C 256.214844 17.074219 221.785156 17.074219 221.785156 17.074219 C 221.785156 17.074219 208.011719 72.160156 208.011719 72.160156 Z M 208.011719 72.160156 " fill-opacity="1" fill-rule="nonzero"/></g><g clip-path="url(#b734994cf4)"><g clip-path="url(#04253e648e)"><path fill="#ffffff" d="M 98.769531 348.097656 L 116.703125 348.097656 L 116.703125 366.03125 L 98.769531 366.03125 Z M 98.769531 348.097656 " fill-opacity="1" fill-rule="nonzero"/></g></g><g clip-path="url(#6b522d6560)"><g clip-path="url(#2bb47c712e)"><path fill="#ffffff" d="M 251.039062 348.097656 L 268.972656 348.097656 L 268.972656 366.03125 L 251.039062 366.03125 Z M 251.039062 348.097656 " fill-opacity="1" fill-rule="nonzero"/></g></g><g fill="#ffffff" fill-opacity="1"><g transform="translate(57.86661, 325.171045)"><g><path d="M 20.921875 -19.4375 C 25.679688 -18.882812 29.070312 -17.859375 31.09375 -16.359375 C 33.113281 -14.867188 34.125 -12.625 34.125 -9.625 C 34.125 -6.632812 32.65625 -4.207031 29.71875 -2.34375 C 26.78125 -0.488281 22.882812 0.4375 18.03125 0.4375 C 13.1875 0.4375 9.421875 -0.453125 6.734375 -2.234375 C 4.046875 -4.023438 2.703125 -6.226562 2.703125 -8.84375 C 2.703125 -9.488281 3.035156 -9.8125 3.703125 -9.8125 L 12.640625 -9.8125 C 13.242188 -9.8125 13.738281 -9.617188 14.125 -9.234375 C 14.9375 -8.453125 16.34375 -8.0625 18.34375 -8.0625 C 21.101562 -8.0625 22.484375 -8.484375 22.484375 -9.328125 C 22.484375 -9.847656 22.046875 -10.257812 21.171875 -10.5625 C 20.304688 -10.875 18.582031 -11.175781 16 -11.46875 C 7.769531 -12.445312 3.65625 -15.597656 3.65625 -20.921875 C 3.65625 -23.910156 4.976562 -26.328125 7.625 -28.171875 C 10.269531 -30.015625 13.804688 -30.9375 18.234375 -30.9375 C 22.671875 -30.9375 26.253906 -29.96875 28.984375 -28.03125 C 31.710938 -26.101562 33.078125 -24.066406 33.078125 -21.921875 C 33.078125 -21.628906 32.984375 -21.394531 32.796875 -21.21875 C 32.609375 -21.050781 32.351562 -20.96875 32.03125 -20.96875 L 22.65625 -20.96875 C 22.132812 -20.96875 21.6875 -21.140625 21.3125 -21.484375 C 20.613281 -22.117188 19.566406 -22.4375 18.171875 -22.4375 C 16.222656 -22.4375 15.25 -22.03125 15.25 -21.21875 C 15.25 -20.78125 15.625 -20.4375 16.375 -20.1875 C 17.132812 -19.945312 18.648438 -19.695312 20.921875 -19.4375 Z M 20.921875 -19.4375 "/></g></g></g><g fill="#ffffff" fill-opacity="1"><g transform="translate(94.899515, 325.171045)"><g><path d="M 3.484375 -30.5 L 33.5625 -30.5 C 33.875 -30.5 34.144531 -30.382812 34.375 -30.15625 C 34.613281 -29.925781 34.734375 -29.648438 34.734375 -29.328125 L 34.734375 -22.3125 C 34.734375 -21.988281 34.613281 -21.710938 34.375 -21.484375 C 34.144531 -21.253906 33.875 -21.140625 33.5625 -21.140625 L 24.1875 -21.140625 L 24.1875 -1.171875 C 24.1875 -0.859375 24.066406 -0.582031 23.828125 -0.34375 C 23.597656 -0.113281 23.328125 0 23.015625 0 L 14.03125 0 C 13.707031 0 13.429688 -0.113281 13.203125 -0.34375 C 12.972656 -0.582031 12.859375 -0.859375 12.859375 -1.171875 L 12.859375 -21.140625 L 3.484375 -21.140625 C 3.160156 -21.140625 2.882812 -21.253906 2.65625 -21.484375 C 2.425781 -21.710938 2.3125 -21.988281 2.3125 -22.3125 L 2.3125 -29.328125 C 2.3125 -29.648438 2.425781 -29.925781 2.65625 -30.15625 C 2.882812 -30.382812 3.160156 -30.5 3.484375 -30.5 Z M 3.484375 -30.5 "/></g></g></g><g fill="#ffffff" fill-opacity="1"><g transform="translate(131.932419, 325.171045)"><g><path d="M 24.0625 -30.5 L 33.03125 -30.5 C 33.351562 -30.5 33.628906 -30.382812 33.859375 -30.15625 C 34.085938 -29.925781 34.203125 -29.648438 34.203125 -29.328125 L 34.203125 -1.171875 C 34.203125 -0.859375 34.085938 -0.582031 33.859375 -0.34375 C 33.628906 -0.113281 33.351562 0 33.03125 0 L 24.0625 0 C 23.738281 0 23.457031 -0.113281 23.21875 -0.34375 C 22.988281 -0.582031 22.875 -0.859375 22.875 -1.171875 L 22.875 -10.453125 L 14.15625 -10.453125 L 14.15625 -1.171875 C 14.15625 -0.859375 14.039062 -0.582031 13.8125 -0.34375 C 13.582031 -0.113281 13.304688 0 12.984375 0 L 4.015625 0 C 3.691406 0 3.410156 -0.109375 3.171875 -0.328125 C 2.941406 -0.546875 2.828125 -0.828125 2.828125 -1.171875 L 2.828125 -29.328125 C 2.828125 -29.648438 2.941406 -29.925781 3.171875 -30.15625 C 3.410156 -30.382812 3.691406 -30.5 4.015625 -30.5 L 12.984375 -30.5 C 13.304688 -30.5 13.582031 -30.382812 13.8125 -30.15625 C 14.039062 -29.925781 14.15625 -29.648438 14.15625 -29.328125 L 14.15625 -20.390625 L 22.875 -20.390625 L 22.875 -29.328125 C 22.875 -29.648438 22.988281 -29.925781 23.21875 -30.15625 C 23.457031 -30.382812 23.738281 -30.5 24.0625 -30.5 Z M 24.0625 -30.5 "/></g></g></g><g fill="#ffffff" fill-opacity="1"><g transform="translate(168.965324, 325.171045)"><g><path d="M 15.25 -8.5 L 32.640625 -8.5 C 32.960938 -8.5 33.238281 -8.378906 33.46875 -8.140625 C 33.695312 -7.910156 33.8125 -7.640625 33.8125 -7.328125 L 33.8125 -1.171875 C 33.8125 -0.859375 33.695312 -0.582031 33.46875 -0.34375 C 33.238281 -0.113281 32.960938 0 32.640625 0 L 5.09375 0 C 4.78125 0 4.503906 -0.113281 4.265625 -0.34375 C 4.035156 -0.582031 3.921875 -0.859375 3.921875 -1.171875 L 3.921875 -29.328125 C 3.921875 -29.648438 4.035156 -29.925781 4.265625 -30.15625 C 4.503906 -30.382812 4.78125 -30.5 5.09375 -30.5 L 32.203125 -30.5 C 32.523438 -30.5 32.800781 -30.382812 33.03125 -30.15625 C 33.257812 -29.925781 33.375 -29.648438 33.375 -29.328125 L 33.375 -23.1875 C 33.375 -22.863281 33.257812 -22.582031 33.03125 -22.34375 C 32.800781 -22.113281 32.523438 -22 32.203125 -22 L 15.25 -22 L 15.25 -19.265625 L 29.8125 -19.265625 C 30.125 -19.265625 30.394531 -19.144531 30.625 -18.90625 C 30.863281 -18.675781 30.984375 -18.398438 30.984375 -18.078125 L 30.984375 -12.421875 C 30.984375 -12.097656 30.863281 -11.820312 30.625 -11.59375 C 30.394531 -11.363281 30.125 -11.25 29.8125 -11.25 L 15.25 -11.25 Z M 15.25 -8.5 "/></g></g></g><g fill="#ffffff" fill-opacity="1"><g transform="translate(205.998228, 325.171045)"><g><path d="M 24.0625 -30.5 L 32.15625 -30.5 C 32.476562 -30.5 32.753906 -30.382812 32.984375 -30.15625 C 33.222656 -29.925781 33.34375 -29.648438 33.34375 -29.328125 L 33.34375 -1.171875 C 33.34375 -0.859375 33.222656 -0.582031 32.984375 -0.34375 C 32.753906 -0.113281 32.476562 0 32.15625 0 L 25.140625 0 C 24.441406 0 23.863281 -0.304688 23.40625 -0.921875 L 13.90625 -13.03125 L 13.90625 -1.171875 C 13.90625 -0.859375 13.785156 -0.582031 13.546875 -0.34375 C 13.316406 -0.113281 13.039062 0 12.71875 0 L 4.625 0 C 4.300781 0 4.019531 -0.113281 3.78125 -0.34375 C 3.550781 -0.582031 3.4375 -0.859375 3.4375 -1.171875 L 3.4375 -29.328125 C 3.4375 -29.648438 3.550781 -29.925781 3.78125 -30.15625 C 4.019531 -30.382812 4.300781 -30.5 4.625 -30.5 L 11.671875 -30.5 C 12.367188 -30.5 12.9375 -30.210938 13.375 -29.640625 L 22.875 -16.515625 L 22.875 -29.328125 C 22.875 -29.648438 22.988281 -29.925781 23.21875 -30.15625 C 23.457031 -30.382812 23.738281 -30.5 24.0625 -30.5 Z M 24.0625 -30.5 "/></g></g></g><g fill="#ffffff" fill-opacity="1"><g transform="translate(243.031132, 325.171045)"><g><path d="M 34.734375 -17.90625 L 34.734375 -12.59375 C 34.734375 -9.601562 34.003906 -7.101562 32.546875 -5.09375 C 31.097656 -3.09375 29.195312 -1.671875 26.84375 -0.828125 C 24.488281 0.015625 21.710938 0.4375 18.515625 0.4375 C 15.328125 0.4375 12.554688 0.015625 10.203125 -0.828125 C 7.847656 -1.671875 5.941406 -3.09375 4.484375 -5.09375 C 3.035156 -7.101562 2.3125 -9.632812 2.3125 -12.6875 L 2.3125 -17.828125 C 2.3125 -22.210938 3.8125 -25.492188 6.8125 -27.671875 C 9.820312 -29.847656 13.722656 -30.9375 18.515625 -30.9375 C 23.316406 -30.9375 27.21875 -29.847656 30.21875 -27.671875 C 33.226562 -25.492188 34.734375 -22.238281 34.734375 -17.90625 Z M 14.078125 -18.734375 L 14.078125 -11.765625 C 14.078125 -10.578125 14.472656 -9.660156 15.265625 -9.015625 C 16.066406 -8.378906 17.148438 -8.0625 18.515625 -8.0625 C 19.878906 -8.0625 20.960938 -8.382812 21.765625 -9.03125 C 22.566406 -9.6875 22.96875 -10.613281 22.96875 -11.8125 L 22.96875 -18.6875 C 22.96875 -19.882812 22.566406 -20.804688 21.765625 -21.453125 C 20.960938 -22.109375 19.878906 -22.4375 18.515625 -22.4375 C 17.148438 -22.4375 16.066406 -22.117188 15.265625 -21.484375 C 14.472656 -20.847656 14.078125 -19.929688 14.078125 -18.734375 Z M 14.078125 -18.734375 "/></g></g></g><g fill="#ffffff" fill-opacity="1"><g transform="translate(280.064037, 325.171045)"><g><path d="M 20.921875 -19.4375 C 25.679688 -18.882812 29.070312 -17.859375 31.09375 -16.359375 C 33.113281 -14.867188 34.125 -12.625 34.125 -9.625 C 34.125 -6.632812 32.65625 -4.207031 29.71875 -2.34375 C 26.78125 -0.488281 22.882812 0.4375 18.03125 0.4375 C 13.1875 0.4375 9.421875 -0.453125 6.734375 -2.234375 C 4.046875 -4.023438 2.703125 -6.226562 2.703125 -8.84375 C 2.703125 -9.488281 3.035156 -9.8125 3.703125 -9.8125 L 12.640625 -9.8125 C 13.242188 -9.8125 13.738281 -9.617188 14.125 -9.234375 C 14.9375 -8.453125 16.34375 -8.0625 18.34375 -8.0625 C 21.101562 -8.0625 22.484375 -8.484375 22.484375 -9.328125 C 22.484375 -9.847656 22.046875 -10.257812 21.171875 -10.5625 C 20.304688 -10.875 18.582031 -11.175781 16 -11.46875 C 7.769531 -12.445312 3.65625 -15.597656 3.65625 -20.921875 C 3.65625 -23.910156 4.976562 -26.328125 7.625 -28.171875 C 10.269531 -30.015625 13.804688 -30.9375 18.234375 -30.9375 C 22.671875 -30.9375 26.253906 -29.96875 28.984375 -28.03125 C 31.710938 -26.101562 33.078125 -24.066406 33.078125 -21.921875 C 33.078125 -21.628906 32.984375 -21.394531 32.796875 -21.21875 C 32.609375 -21.050781 32.351562 -20.96875 32.03125 -20.96875 L 22.65625 -20.96875 C 22.132812 -20.96875 21.6875 -21.140625 21.3125 -21.484375 C 20.613281 -22.117188 19.566406 -22.4375 18.171875 -22.4375 C 16.222656 -22.4375 15.25 -22.03125 15.25 -21.21875 C 15.25 -20.78125 15.625 -20.4375 16.375 -20.1875 C 17.132812 -19.945312 18.648438 -19.695312 20.921875 -19.4375 Z M 20.921875 -19.4375 "/></g></g></g><g fill="#ffffff" fill-opacity="1"><g transform="translate(136.2059, 366.127555)"><g><path d="M 22.140625 -6.1875 C 22.359375 -6.1875 22.546875 -6.101562 22.703125 -5.9375 C 22.867188 -5.78125 22.953125 -5.59375 22.953125 -5.375 L 22.953125 -0.8125 C 22.953125 -0.59375 22.867188 -0.398438 22.703125 -0.234375 C 22.546875 -0.078125 22.359375 0 22.140625 0 L 3.921875 0 C 3.703125 0 3.507812 -0.078125 3.34375 -0.234375 C 3.1875 -0.398438 3.109375 -0.59375 3.109375 -0.8125 L 3.109375 -4.53125 C 3.109375 -5.289062 3.367188 -5.832031 3.890625 -6.15625 C 7.316406 -8.3125 9.878906 -10.035156 11.578125 -11.328125 C 13.285156 -12.617188 14.140625 -13.613281 14.140625 -14.3125 C 14.140625 -14.550781 14.125 -14.742188 14.09375 -14.890625 C 14.0625 -15.046875 13.953125 -15.191406 13.765625 -15.328125 C 13.585938 -15.460938 13.320312 -15.53125 12.96875 -15.53125 C 12.613281 -15.53125 12.316406 -15.445312 12.078125 -15.28125 C 11.835938 -15.125 11.675781 -14.960938 11.59375 -14.796875 C 11.519531 -14.640625 11.441406 -14.414062 11.359375 -14.125 C 11.273438 -13.832031 11.222656 -13.664062 11.203125 -13.625 C 11.117188 -13.40625 10.835938 -13.296875 10.359375 -13.296875 L 4.234375 -13.296875 C 4.023438 -13.296875 3.84375 -13.363281 3.6875 -13.5 C 3.539062 -13.644531 3.46875 -13.828125 3.46875 -14.046875 C 3.46875 -16.296875 4.347656 -18.085938 6.109375 -19.421875 C 7.878906 -20.765625 10.242188 -21.4375 13.203125 -21.4375 C 16.160156 -21.4375 18.394531 -20.851562 19.90625 -19.6875 C 21.414062 -18.519531 22.171875 -16.859375 22.171875 -14.703125 C 22.171875 -13.617188 21.816406 -12.632812 21.109375 -11.75 C 20.722656 -11.269531 20.351562 -10.84375 20 -10.46875 C 19.65625 -10.09375 19.148438 -9.65625 18.484375 -9.15625 C 16.890625 -7.96875 15.460938 -6.976562 14.203125 -6.1875 Z M 22.140625 -6.1875 "/></g></g></g><g fill="#ffffff" fill-opacity="1"><g transform="translate(161.876796, 366.127555)"><g><path d="M 10.875 -13.625 L 10.875 -7.578125 C 10.875 -7.015625 11.0625 -6.546875 11.4375 -6.171875 C 11.820312 -5.804688 12.285156 -5.625 12.828125 -5.625 C 13.378906 -5.625 13.84375 -5.8125 14.21875 -6.1875 C 14.601562 -6.570312 14.796875 -7.035156 14.796875 -7.578125 L 14.796875 -13.625 C 14.796875 -14.1875 14.609375 -14.648438 14.234375 -15.015625 C 13.867188 -15.390625 13.398438 -15.578125 12.828125 -15.578125 C 12.265625 -15.578125 11.796875 -15.382812 11.421875 -15 C 11.054688 -14.625 10.875 -14.164062 10.875 -13.625 Z M 22.953125 -13.3125 L 22.953125 -7.828125 C 22.953125 -5.148438 22.019531 -3.125 20.15625 -1.75 C 18.289062 -0.382812 15.84375 0.296875 12.8125 0.296875 C 9.789062 0.296875 7.351562 -0.382812 5.5 -1.75 C 3.644531 -3.125 2.71875 -5.171875 2.71875 -7.890625 L 2.71875 -13.265625 C 2.71875 -15.941406 3.671875 -17.972656 5.578125 -19.359375 C 7.492188 -20.742188 9.910156 -21.4375 12.828125 -21.4375 C 15.753906 -21.4375 18.171875 -20.742188 20.078125 -19.359375 C 21.992188 -17.972656 22.953125 -15.957031 22.953125 -13.3125 Z M 22.953125 -13.3125 "/></g></g></g><g fill="#ffffff" fill-opacity="1"><g transform="translate(187.547692, 366.127555)"><g><path d="M 22.140625 -6.1875 C 22.359375 -6.1875 22.546875 -6.101562 22.703125 -5.9375 C 22.867188 -5.78125 22.953125 -5.59375 22.953125 -5.375 L 22.953125 -0.8125 C 22.953125 -0.59375 22.867188 -0.398438 22.703125 -0.234375 C 22.546875 -0.078125 22.359375 0 22.140625 0 L 3.921875 0 C 3.703125 0 3.507812 -0.078125 3.34375 -0.234375 C 3.1875 -0.398438 3.109375 -0.59375 3.109375 -0.8125 L 3.109375 -4.53125 C 3.109375 -5.289062 3.367188 -5.832031 3.890625 -6.15625 C 7.316406 -8.3125 9.878906 -10.035156 11.578125 -11.328125 C 13.285156 -12.617188 14.140625 -13.613281 14.140625 -14.3125 C 14.140625 -14.550781 14.125 -14.742188 14.09375 -14.890625 C 14.0625 -15.046875 13.953125 -15.191406 13.765625 -15.328125 C 13.585938 -15.460938 13.320312 -15.53125 12.96875 -15.53125 C 12.613281 -15.53125 12.316406 -15.445312 12.078125 -15.28125 C 11.835938 -15.125 11.675781 -14.960938 11.59375 -14.796875 C 11.519531 -14.640625 11.441406 -14.414062 11.359375 -14.125 C 11.273438 -13.832031 11.222656 -13.664062 11.203125 -13.625 C 11.117188 -13.40625 10.835938 -13.296875 10.359375 -13.296875 L 4.234375 -13.296875 C 4.023438 -13.296875 3.84375 -13.363281 3.6875 -13.5 C 3.539062 -13.644531 3.46875 -13.828125 3.46875 -14.046875 C 3.46875 -16.296875 4.347656 -18.085938 6.109375 -19.421875 C 7.878906 -20.765625 10.242188 -21.4375 13.203125 -21.4375 C 16.160156 -21.4375 18.394531 -20.851562 19.90625 -19.6875 C 21.414062 -18.519531 22.171875 -16.859375 22.171875 -14.703125 C 22.171875 -13.617188 21.816406 -12.632812 21.109375 -11.75 C 20.722656 -11.269531 20.351562 -10.84375 20 -10.46875 C 19.65625 -10.09375 19.148438 -9.65625 18.484375 -9.15625 C 16.890625 -7.96875 15.460938 -6.976562 14.203125 -6.1875 Z M 22.140625 -6.1875 "/></g></g></g><g fill="#ffffff" fill-opacity="1"><g transform="translate(213.218588, 366.127555)"><g><path d="M 20.296875 -9.515625 L 22.921875 -9.515625 C 23.160156 -9.515625 23.359375 -9.429688 23.515625 -9.265625 C 23.679688 -9.109375 23.765625 -8.921875 23.765625 -8.703125 L 23.765625 -4.203125 C 23.765625 -3.972656 23.679688 -3.773438 23.515625 -3.609375 C 23.359375 -3.453125 23.171875 -3.375 22.953125 -3.375 L 20.296875 -3.375 L 20.296875 -0.8125 C 20.296875 -0.59375 20.210938 -0.398438 20.046875 -0.234375 C 19.890625 -0.078125 19.703125 0 19.484375 0 L 13.40625 0 C 13.1875 0 12.992188 -0.078125 12.828125 -0.234375 C 12.671875 -0.398438 12.59375 -0.59375 12.59375 -0.8125 L 12.59375 -3.375 L 2.8125 -3.375 C 2.59375 -3.375 2.398438 -3.453125 2.234375 -3.609375 C 2.078125 -3.773438 2 -3.972656 2 -4.203125 L 2 -8.671875 C 2 -9.015625 2.109375 -9.328125 2.328125 -9.609375 L 11.484375 -20.625 C 11.765625 -20.96875 12.132812 -21.140625 12.59375 -21.140625 L 19.484375 -21.140625 C 19.703125 -21.140625 19.890625 -21.054688 20.046875 -20.890625 C 20.210938 -20.734375 20.296875 -20.546875 20.296875 -20.328125 Z M 12.8125 -9.1875 L 12.8125 -13.4375 L 9.328125 -9.1875 Z M 12.8125 -9.1875 "/></g></g></g></svg>